<?xml version="1.0" standalone="no"?>
<!DOCTYPE svg PUBLIC "-//W3C//DTD SVG 1.1//EN" "http://www.w3.org/Graphics/SVG/1.1/DTD/svg11.dtd" >
<svg xmlns="http://www.w3.org/2000/svg" xmlns:xlink="http://www.w3.org/1999/xlink" version="1.1">
<metadata>
Created by FontForge 20200511 at Tue Mar 29 15:56:02 2022
 By convertio
Copyright \(c\) 2022 by Johan Moss_. LiftType: http://www.lift-type.fr / all rights reserved.
</metadata>
<defs>
<font id="SansPlomb-98" horiz-adv-x="401" >
  <font-face 
    font-family="SansPlomb 98"
    font-weight="600"
    font-stretch="normal"
    units-per-em="1000"
    panose-1="0 0 7 0 0 0 0 0 0 0"
    ascent="800"
    descent="-200"
    x-height="580"
    cap-height="700"
    bbox="-306 -130 1633 830"
    underline-thickness="50"
    underline-position="-100"
    stemh="90"
    stemv="128"
    unicode-range="U+0020-FB02"
  />
<missing-glyph horiz-adv-x="410" 
d="M76 700h260v-820h-260v820zM273 618v27h-135v-27h53v-30h-54v-27h136v27h-54v30h54zM219 482v57h-82v-85h136v28h-54zM164 511h27v-29h-27v29zM273 405v27h-136v-27h54v-31h-54v-27h82v58h54zM273 301v82h-27v-54h-109v-28h136zM273 190v93h-82v-46h28v19h27v-39h-82v66
h-27v-93h136zM273 48v93h-136v-93h136zM164 114h82v-39h-82v39zM273 2v27h-136v-27h57l-57 -38v-27h136v27h-84l58 38h26z" />
    <glyph glyph-name="f_f" unicode="ff" horiz-adv-x="546" 
d="M536 615h-67c-30 0 -38 -5 -38 -35h105v-90h-105v-490h-125v490h-104v-490h-125v490h-67v90h67c0 82 46 120 125 120h82v-85h-44c-30 0 -38 -5 -38 -35h104c0 82 46 120 125 120h105v-85z" />
    <glyph glyph-name="f_f_i" unicode="ffi" horiz-adv-x="690" 
d="M610 594v-14h50v-580h-125v490h-104v-490h-125v490h-104v-490h-125v490h-67v90h67c0 82 46 120 125 120h82v-85h-44c-30 0 -38 -5 -38 -35h104c0 82 46 120 125 120h73v-85h-35c-30 0 -38 -5 -38 -35h154v14c-48 15 -65 54 -65 106h155c0 -52 -20 -92 -65 -106z" />
    <glyph glyph-name="f_f_l" unicode="ffl" horiz-adv-x="690" 
d="M431 700h229v-700h-125v615h-66c-30 0 -38 -5 -38 -35h73v-90h-73v-490h-125v490h-104v-490h-125v490h-67v90h67c0 82 46 120 125 120h82v-85h-44c-30 0 -38 -5 -38 -35h104c0 82 46 120 125 120z" />
    <glyph glyph-name="fi" unicode="fi" horiz-adv-x="461" 
d="M381 594v-14h50v-580h-125v490h-104v-490h-125v490h-67v90h67c0 82 46 120 125 120h72v-85h-34c-30 0 -38 -5 -38 -35h154v14c-48 15 -65 54 -65 106h155c0 -52 -20 -92 -65 -106z" />
    <glyph glyph-name="fl" unicode="fl" horiz-adv-x="461" 
d="M202 700h229v-700h-125v615h-66c-30 0 -38 -5 -38 -35h73v-90h-73v-490h-125v490h-67v90h67c0 82 46 120 125 120z" />
    <glyph glyph-name=".notdef" horiz-adv-x="410" 
d="M76 700h260v-820h-260v820zM273 618v27h-135v-27h53v-30h-54v-27h136v27h-54v30h54zM219 482v57h-82v-85h136v28h-54zM164 511h27v-29h-27v29zM273 405v27h-136v-27h54v-31h-54v-27h82v58h54zM273 301v82h-27v-54h-109v-28h136zM273 190v93h-82v-46h28v19h27v-39h-82v66
h-27v-93h136zM273 48v93h-136v-93h136zM164 114h82v-39h-82v39zM273 2v27h-136v-27h57l-57 -38v-27h136v27h-84l58 38h26z" />
    <glyph glyph-name="space" unicode=" " horiz-adv-x="140" 
 />
    <glyph glyph-name="A" unicode="A" horiz-adv-x="390" 
d="M388 0h-132l-16 152h-90l-16 -152h-132l108 700h170zM174 375l-14 -133h70l-14 133l-15 196h-12z" />
    <glyph glyph-name="Aacute" unicode="&#xc1;" horiz-adv-x="390" 
d="M178 820h155l-90 -90h-108zM388 0h-132l-16 152h-90l-16 -152h-132l108 700h170zM174 375l-14 -133h70l-14 133l-15 196h-12z" />
    <glyph glyph-name="Abreve" unicode="&#x102;" horiz-adv-x="390" 
d="M195 724c-81 0 -128 36 -128 96h105c0 -28 9 -39 23 -39s23 11 23 39h104c0 -60 -46 -96 -127 -96zM388 0h-132l-16 152h-90l-16 -152h-132l108 700h170zM174 375l-14 -133h70l-14 133l-15 196h-12z" />
    <glyph glyph-name="Acircumflex" unicode="&#xc2;" horiz-adv-x="390" 
d="M200 768h-10l-16 -38h-118l64 90h150l64 -90h-118zM388 0h-132l-16 152h-90l-16 -152h-132l108 700h170zM174 375l-14 -133h70l-14 133l-15 196h-12z" />
    <glyph glyph-name="Adieresis" unicode="&#xc4;" horiz-adv-x="390" 
d="M125 724c-41 0 -65 37 -65 96h128c2 -59 -22 -96 -63 -96zM266 724c-41 0 -65 37 -65 96h129c1 -59 -23 -96 -64 -96zM388 0h-132l-16 152h-90l-16 -152h-132l108 700h170zM174 375l-14 -133h70l-14 133l-15 196h-12z" />
    <glyph glyph-name="Agrave" unicode="&#xc0;" horiz-adv-x="390" 
d="M212 820l43 -90h-108l-90 90h155zM388 0h-132l-16 152h-90l-16 -152h-132l108 700h170zM174 375l-14 -133h70l-14 133l-15 196h-12z" />
    <glyph glyph-name="Amacron" unicode="&#x100;" horiz-adv-x="390" 
d="M100 820h190v-80h-190v80zM388 0h-132l-16 152h-90l-16 -152h-132l108 700h170zM174 375l-14 -133h70l-14 133l-15 196h-12z" />
    <glyph glyph-name="Aogonek" unicode="&#x104;" horiz-adv-x="390" 
d="M321 0v-12c0 -16 8 -23 24 -23h39v-85h-42c-57 0 -86 19 -86 81v39l-16 152h-90l-16 -152h-132l108 700h170l108 -700h-67zM174 375l-14 -133h70l-14 133l-15 196h-12z" />
    <glyph glyph-name="Aring" unicode="&#xc5;" horiz-adv-x="390" 
d="M195 724c-69 0 -105 20 -105 53s36 53 105 53s105 -20 105 -53s-36 -53 -105 -53zM195 790c-16 0 -26 -5 -26 -12c0 -8 10 -13 26 -13s26 5 26 13c0 7 -10 12 -26 12zM388 0h-132l-16 152h-90l-16 -152h-132l108 700h170zM174 375l-14 -133h70l-14 133l-15 196h-12z" />
    <glyph glyph-name="Atilde" unicode="&#xc3;" horiz-adv-x="390" 
d="M129 737v-7h-57v38c0 58 52 69 100 53l64 -21c16 -5 25 0 25 13v7h57v-38c0 -58 -52 -69 -100 -53l-64 21c-16 5 -25 0 -25 -13zM388 0h-132l-16 152h-90l-16 -152h-132l108 700h170zM174 375l-14 -133h70l-14 133l-15 196h-12z" />
    <glyph glyph-name="AE" unicode="&#xc6;" horiz-adv-x="501" 
d="M486 698v-90h-118v-190h108v-90h-108v-238h118v-90h-246v149h-80l-26 -149h-132l142 700h165v-1zM206 414l-30 -175h64v361h-14c0 -6 -12 -139 -20 -186z" />
    <glyph glyph-name="B" unicode="B" horiz-adv-x="403" 
d="M30 700h156c123 0 192 -68 192 -178c0 -78 -44 -136 -106 -147v-12c68 -11 116 -81 116 -161v-13c0 -122 -79 -189 -187 -189h-171v700zM158 610v-198h30c41 0 56 30 56 71v56c0 41 -15 71 -56 71h-30zM158 322v-232h40c41 0 56 30 56 71v90c0 41 -15 71 -56 71h-40z" />
    <glyph glyph-name="C" unicode="C" horiz-adv-x="392" 
d="M243 301h134v-34c0 -192 -77 -277 -181 -277c-109 0 -181 88 -181 340v40c0 252 73 340 181 340c104 0 181 -88 181 -275v-24h-134v138c0 41 -14 71 -47 71s-47 -30 -47 -71v-398c0 -41 14 -71 47 -71s47 30 47 71v150z" />
    <glyph glyph-name="Cacute" unicode="&#x106;" horiz-adv-x="392" 
d="M244 730h-108l43 90h155zM243 301h134v-34c0 -192 -77 -277 -181 -277c-109 0 -181 88 -181 340v40c0 252 73 340 181 340c104 0 181 -88 181 -275v-24h-134v138c0 41 -14 71 -47 71s-47 -30 -47 -71v-398c0 -41 14 -71 47 -71s47 30 47 71v150z" />
    <glyph glyph-name="Ccaron" unicode="&#x10c;" horiz-adv-x="392" 
d="M335 820l-64 -90h-150l-64 90h118l16 -38h10l16 38h118zM243 301h134v-34c0 -192 -77 -277 -181 -277c-109 0 -181 88 -181 340v40c0 252 73 340 181 340c104 0 181 -88 181 -275v-24h-134v138c0 41 -14 71 -47 71s-47 -30 -47 -71v-398c0 -41 14 -71 47 -71s47 30 47 71
v150z" />
    <glyph glyph-name="Ccedilla" unicode="&#xc7;" horiz-adv-x="392" 
d="M377 435v-24h-134v138c0 41 -14 71 -47 71s-47 -30 -47 -71v-398c0 -41 14 -71 47 -71s47 30 47 71v150h134v-34c0 -155 -50 -240 -124 -267v-39c0 -62 -29 -81 -86 -81h-42v85h39c16 0 24 7 24 23v2c-105 4 -173 94 -173 340v40c0 252 73 340 181 340
c104 0 181 -88 181 -275z" />
    <glyph glyph-name="Cdotaccent" unicode="&#x10a;" horiz-adv-x="392" 
d="M196 724c-45 0 -72 37 -72 96h143c0 -59 -27 -96 -71 -96zM243 301h134v-34c0 -192 -77 -277 -181 -277c-109 0 -181 88 -181 340v40c0 252 73 340 181 340c104 0 181 -88 181 -275v-24h-134v138c0 41 -14 71 -47 71s-47 -30 -47 -71v-398c0 -41 14 -71 47 -71
s47 30 47 71v150z" />
    <glyph glyph-name="D" unicode="D" horiz-adv-x="403" 
d="M30 700h167c135 0 191 -113 191 -331v-45c0 -213 -55 -324 -186 -324h-172v700zM254 161v378c0 41 -15 71 -56 71h-40v-520h40c41 0 56 30 56 71z" />
    <glyph glyph-name="Eth" unicode="&#xd0;" horiz-adv-x="425" 
d="M52 700h167c135 0 191 -113 191 -331v-45c0 -213 -55 -324 -186 -324h-172v323h-44v90h44v287zM276 161v378c0 41 -15 71 -56 71h-40v-197h44v-90h-44v-233h40c41 0 56 30 56 71z" />
    <glyph glyph-name="Dcaron" unicode="&#x10e;" horiz-adv-x="403" 
d="M329 820l-64 -90h-150l-64 90h118l16 -38h10l16 38h118zM30 700h167c135 0 191 -113 191 -331v-45c0 -213 -55 -324 -186 -324h-172v700zM254 161v378c0 41 -15 71 -56 71h-40v-520h40c41 0 56 30 56 71z" />
    <glyph glyph-name="Dcroat" unicode="&#x110;" horiz-adv-x="425" 
d="M52 700h167c135 0 191 -113 191 -331v-45c0 -213 -55 -324 -186 -324h-172v323h-44v90h44v287zM276 161v378c0 41 -15 71 -56 71h-40v-197h44v-90h-44v-233h40c41 0 56 30 56 71z" />
    <glyph glyph-name="E" unicode="E" horiz-adv-x="291" 
d="M266 418v-90h-108v-238h118v-90h-246v700h246v-90h-118v-192h108z" />
    <glyph glyph-name="Eacute" unicode="&#xc9;" horiz-adv-x="291" 
d="M199 730h-108l43 90h155zM266 418v-90h-108v-238h118v-90h-246v700h246v-90h-118v-192h108z" />
    <glyph glyph-name="Ecaron" unicode="&#x11a;" horiz-adv-x="291" 
d="M290 820l-64 -90h-150l-64 90h118l16 -38h10l16 38h118zM266 418v-90h-108v-238h118v-90h-246v700h246v-90h-118v-192h108z" />
    <glyph glyph-name="Ecircumflex" unicode="&#xca;" horiz-adv-x="291" 
d="M76 820h150l64 -90h-118l-16 38h-10l-16 -38h-118zM266 418v-90h-108v-238h118v-90h-246v700h246v-90h-118v-192h108z" />
    <glyph glyph-name="Edieresis" unicode="&#xcb;" horiz-adv-x="291" 
d="M81 724c-41 0 -65 37 -65 96h128c2 -59 -22 -96 -63 -96zM222 724c-41 0 -65 37 -65 96h129c1 -59 -23 -96 -64 -96zM266 418v-90h-108v-238h118v-90h-246v700h246v-90h-118v-192h108z" />
    <glyph glyph-name="Edotaccent" unicode="&#x116;" horiz-adv-x="291" 
d="M151 724c-45 0 -72 37 -72 96h143c0 -59 -27 -96 -71 -96zM266 418v-90h-108v-238h118v-90h-246v700h246v-90h-118v-192h108z" />
    <glyph glyph-name="Egrave" unicode="&#xc8;" horiz-adv-x="291" 
d="M168 820l43 -90h-108l-90 90h155zM266 418v-90h-108v-238h118v-90h-246v700h246v-90h-118v-192h108z" />
    <glyph glyph-name="Emacron" unicode="&#x112;" horiz-adv-x="291" 
d="M56 740v80h190v-80h-190zM266 418v-90h-108v-238h118v-90h-246v700h246v-90h-118v-192h108z" />
    <glyph glyph-name="Eogonek" unicode="&#x118;" horiz-adv-x="291" 
d="M276 700v-90h-118v-192h108v-90h-108v-238h118v-90h-63v-12c0 -16 8 -23 24 -23h39v-85h-42c-57 0 -86 19 -86 81v39h-118v700h246z" />
    <glyph glyph-name="F" unicode="F" horiz-adv-x="286" 
d="M266 418v-90h-108v-328h-128v700h246v-90h-118v-192h108z" />
    <glyph glyph-name="G" unicode="G" horiz-adv-x="404" 
d="M197 710c108 0 182 -87 182 -265l-134 -1v105c0 41 -15 71 -48 71s-48 -30 -48 -71v-371c0 -51 17 -81 51 -81s51 30 51 81v101h-50v90h178v-369h-78l-18 61h-12c-16 -23 -41 -71 -107 -71c-81 0 -149 88 -149 340v40c0 252 74 340 182 340z" />
    <glyph glyph-name="Gbreve" unicode="&#x11e;" horiz-adv-x="404" 
d="M221 820h104c0 -60 -46 -96 -127 -96s-128 36 -128 96h105c0 -28 9 -39 23 -39s23 11 23 39zM197 710c108 0 182 -87 182 -265l-134 -1v105c0 41 -15 71 -48 71s-48 -30 -48 -71v-371c0 -51 17 -81 51 -81s51 30 51 81v101h-50v90h178v-369h-78l-18 61h-12
c-16 -23 -41 -71 -107 -71c-81 0 -149 88 -149 340v40c0 252 74 340 182 340z" />
    <glyph glyph-name="uni0122" unicode="&#x122;" horiz-adv-x="404" 
d="M197 710c108 0 182 -87 182 -265l-134 -1v105c0 41 -15 71 -48 71s-48 -30 -48 -71v-371c0 -51 17 -81 51 -81s51 30 51 81v101h-50v90h178v-369h-78l-18 61h-12c-16 -23 -41 -71 -107 -71c-81 0 -149 88 -149 340v40c0 252 74 340 182 340zM212 -120h-108l43 90h155z
" />
    <glyph glyph-name="Gdotaccent" unicode="&#x120;" horiz-adv-x="404" 
d="M198 724c-45 0 -72 37 -72 96h143c0 -59 -27 -96 -71 -96zM197 710c108 0 182 -87 182 -265l-134 -1v105c0 41 -15 71 -48 71s-48 -30 -48 -71v-371c0 -51 17 -81 51 -81s51 30 51 81v101h-50v90h178v-369h-78l-18 61h-12c-16 -23 -41 -71 -107 -71
c-81 0 -149 88 -149 340v40c0 252 74 340 182 340z" />
    <glyph glyph-name="H" unicode="H" horiz-adv-x="410" 
d="M158 428h94v272h128v-700h-128v338h-94v-338h-128v700h128v-272z" />
    <glyph glyph-name="Hbar" unicode="&#x126;" horiz-adv-x="410" 
d="M380 606h20v-90h-20v-516h-128v338h-94v-338h-128v516h-20v90h20v94h128v-94h94v94h128v-94zM158 428h94v88h-94v-88z" />
    <glyph glyph-name="I" unicode="I" horiz-adv-x="188" 
d="M30 700h128v-700h-128v700z" />
    <glyph glyph-name="Iacute" unicode="&#xcd;" horiz-adv-x="188" 
d="M142 730h-108l43 90h155zM30 700h128v-700h-128v700z" />
    <glyph glyph-name="Icircumflex" unicode="&#xce;" horiz-adv-x="188" 
d="M19 820h150l64 -90h-118l-16 38h-10l-16 -38h-118zM30 700h128v-700h-128v700z" />
    <glyph glyph-name="Idieresis" unicode="&#xcf;" horiz-adv-x="188" 
d="M24 724c-41 0 -65 37 -65 96h128c2 -59 -22 -96 -63 -96zM165 724c-41 0 -65 37 -65 96h129c1 -59 -23 -96 -64 -96zM30 700h128v-700h-128v700z" />
    <glyph glyph-name="Idotaccent" unicode="&#x130;" horiz-adv-x="188" 
d="M94 724c-45 0 -72 37 -72 96h143c0 -59 -27 -96 -71 -96zM30 700h128v-700h-128v700z" />
    <glyph glyph-name="Igrave" unicode="&#xcc;" horiz-adv-x="188" 
d="M111 820l43 -90h-108l-90 90h155zM30 700h128v-700h-128v700z" />
    <glyph glyph-name="Imacron" unicode="&#x12a;" horiz-adv-x="188" 
d="M10 740v80h168v-80h-168zM30 700h128v-700h-128v700z" />
    <glyph glyph-name="Iogonek" unicode="&#x12e;" horiz-adv-x="188" 
d="M158 700v-700h-63v-12c0 -16 8 -23 24 -23h39v-85h-42c-57 0 -86 19 -86 81v739h128z" />
    <glyph glyph-name="J" unicode="J" horiz-adv-x="366" 
d="M218 700h128v-478c0 -154 -60 -232 -168 -232s-168 78 -168 232v90h128v-165c0 -41 11 -67 40 -67s40 26 40 67v553z" />
    <glyph glyph-name="K" unicode="K" horiz-adv-x="429" 
d="M30 0v699h128v-286h12l98 287h134l-118 -323l143 -377h-139l-118 321h-12v-321h-128z" />
    <glyph glyph-name="uni0136" unicode="&#x136;" horiz-adv-x="429" 
d="M30 0v699h128v-286h12l98 287h134l-118 -323l143 -377h-139l-118 321h-12v-321h-128zM227 -120h-108l43 90h155z" />
    <glyph glyph-name="L" unicode="L" horiz-adv-x="286" 
d="M158 700v-610h118v-90h-246v700h128z" />
    <glyph glyph-name="Lacute" unicode="&#x139;" horiz-adv-x="286" 
d="M140 730h-108l43 90h155zM158 700v-610h118v-90h-246v700h128z" />
    <glyph glyph-name="Lcaron" unicode="&#x13d;" horiz-adv-x="298" 
d="M158 700v-610h118v-90h-246v700h128zM250 515h-69v185h112z" />
    <glyph glyph-name="uni013B" unicode="&#x13b;" horiz-adv-x="286" 
d="M158 700v-610h118v-90h-246v700h128zM145 -120h-108l43 90h155z" />
    <glyph glyph-name="Lslash" unicode="&#x141;" horiz-adv-x="311" 
d="M183 418v-328h118v-90h-246v381l-45 -13v94l45 13v225h128v-188l73 21v-94z" />
    <glyph glyph-name="M" unicode="M" horiz-adv-x="540" 
d="M153 0h-123v700h153l68 -338l13 -81h12l13 81l68 338h153v-700h-123l4 207l16 224h-12l-84 -431h-82l-84 431h-12l16 -224z" />
    <glyph glyph-name="N" unicode="N" horiz-adv-x="419" 
d="M30 0v700h132l111 -421h12l-18 224l-3 197h125v-700h-132l-111 421h-12l18 -224l3 -197h-125z" />
    <glyph glyph-name="Nacute" unicode="&#x143;" horiz-adv-x="419" 
d="M258 730h-108l43 90h155zM30 0v700h132l111 -421h12l-18 224l-3 197h125v-700h-132l-111 421h-12l18 -224l3 -197h-125z" />
    <glyph glyph-name="Ncaron" unicode="&#x147;" horiz-adv-x="419" 
d="M349 820l-64 -90h-150l-64 90h118l16 -38h10l16 38h118zM30 0v700h132l111 -421h12l-18 224l-3 197h125v-700h-132l-111 421h-12l18 -224l3 -197h-125z" />
    <glyph glyph-name="uni0145" unicode="&#x145;" horiz-adv-x="419" 
d="M30 0v700h132l111 -421h12l-18 224l-3 197h125v-700h-132l-111 421h-12l18 -224l3 -197h-125zM217 -120h-108l43 90h155z" />
    <glyph glyph-name="Eng" unicode="&#x14a;" horiz-adv-x="419" 
d="M389 700v-637c0 -157 -56 -183 -164 -183h-22v85h18c33 0 47 19 31 77l-106 379h-12l18 -224l3 -197h-125v700h132l111 -421h12l-19 224l-3 197h126z" />
    <glyph glyph-name="Ntilde" unicode="&#xd1;" horiz-adv-x="419" 
d="M144 730h-57v38c0 58 52 69 100 53l64 -21c16 -5 25 0 25 13v7h57v-38c0 -58 -52 -69 -100 -53l-64 21c-16 5 -25 0 -25 -13v-7zM30 0v700h132l111 -421h12l-18 224l-3 197h125v-700h-132l-111 421h-12l18 -224l3 -197h-125z" />
    <glyph glyph-name="O" unicode="O" horiz-adv-x="394" 
d="M15 330v40c0 228 59 340 182 340s182 -112 182 -340v-40c0 -228 -59 -340 -182 -340s-182 112 -182 340zM149 549v-398c0 -41 15 -71 48 -71s48 30 48 71v398c0 41 -15 71 -48 71s-48 -30 -48 -71z" />
    <glyph glyph-name="Oacute" unicode="&#xd3;" horiz-adv-x="394" 
d="M245 730h-108l43 90h155zM15 330v40c0 228 59 340 182 340s182 -112 182 -340v-40c0 -228 -59 -340 -182 -340s-182 112 -182 340zM149 549v-398c0 -41 15 -71 48 -71s48 30 48 71v398c0 41 -15 71 -48 71s-48 -30 -48 -71z" />
    <glyph glyph-name="Ocircumflex" unicode="&#xd4;" horiz-adv-x="394" 
d="M122 820h150l64 -90h-118l-16 38h-10l-16 -38h-118zM15 330v40c0 228 59 340 182 340s182 -112 182 -340v-40c0 -228 -59 -340 -182 -340s-182 112 -182 340zM149 549v-398c0 -41 15 -71 48 -71s48 30 48 71v398c0 41 -15 71 -48 71s-48 -30 -48 -71z" />
    <glyph glyph-name="Odieresis" unicode="&#xd6;" horiz-adv-x="394" 
d="M127 724c-41 0 -65 37 -65 96h128c2 -59 -22 -96 -63 -96zM268 724c-41 0 -65 37 -65 96h129c1 -59 -23 -96 -64 -96zM15 330v40c0 228 59 340 182 340s182 -112 182 -340v-40c0 -228 -59 -340 -182 -340s-182 112 -182 340zM149 549v-398c0 -41 15 -71 48 -71
s48 30 48 71v398c0 41 -15 71 -48 71s-48 -30 -48 -71z" />
    <glyph glyph-name="Ograve" unicode="&#xd2;" horiz-adv-x="394" 
d="M214 820l43 -90h-108l-90 90h155zM15 330v40c0 228 59 340 182 340s182 -112 182 -340v-40c0 -228 -59 -340 -182 -340s-182 112 -182 340zM149 549v-398c0 -41 15 -71 48 -71s48 30 48 71v398c0 41 -15 71 -48 71s-48 -30 -48 -71z" />
    <glyph glyph-name="Ohungarumlaut" unicode="&#x150;" horiz-adv-x="394" 
d="M155 730h-90l36 90h130zM295 730h-90l36 90h130zM15 330v40c0 228 59 340 182 340s182 -112 182 -340v-40c0 -228 -59 -340 -182 -340s-182 112 -182 340zM149 549v-398c0 -41 15 -71 48 -71s48 30 48 71v398c0 41 -15 71 -48 71s-48 -30 -48 -71z" />
    <glyph glyph-name="Omacron" unicode="&#x14c;" horiz-adv-x="394" 
d="M102 740v80h190v-80h-190zM15 330v40c0 228 59 340 182 340s182 -112 182 -340v-40c0 -228 -59 -340 -182 -340s-182 112 -182 340zM149 549v-398c0 -41 15 -71 48 -71s48 30 48 71v398c0 41 -15 71 -48 71s-48 -30 -48 -71z" />
    <glyph glyph-name="Oslash" unicode="&#xd8;" horiz-adv-x="462" 
d="M407 471l47 19v-97l-42 -17v-6v-40c0 -228 -59 -340 -182 -340c-103 0 -161 79 -177 238l-45 -18v97l40 16v7v40c0 228 59 340 182 340c103 0 161 -79 177 -239zM182 549v-171l96 40v131c0 41 -15 71 -48 71s-48 -30 -48 -71zM278 151v170l-96 -40v-130
c0 -41 15 -71 48 -71s48 30 48 71z" />
    <glyph glyph-name="Otilde" unicode="&#xd5;" horiz-adv-x="394" 
d="M131 730h-57v38c0 58 52 69 100 53l64 -21c16 -5 25 0 25 13v7h57v-38c0 -58 -52 -69 -100 -53l-64 21c-16 5 -25 0 -25 -13v-7zM15 330v40c0 228 59 340 182 340s182 -112 182 -340v-40c0 -228 -59 -340 -182 -340s-182 112 -182 340zM149 549v-398c0 -41 15 -71 48 -71
s48 30 48 71v398c0 41 -15 71 -48 71s-48 -30 -48 -71z" />
    <glyph glyph-name="OE" unicode="&#x152;" horiz-adv-x="506" 
d="M290 658v42h201v-90h-118v-192h108v-90h-108v-238h118v-90h-201v42h-12c-18 -24 -41 -52 -94 -52c-112 0 -169 116 -169 340v40c0 224 57 340 169 340c53 0 76 -28 94 -52h12zM197 80c33 0 48 30 48 71v398c0 41 -15 71 -48 71s-48 -30 -48 -71v-398c0 -41 15 -71 48 -71
z" />
    <glyph glyph-name="P" unicode="P" horiz-adv-x="395" 
d="M30 700h173c120 0 182 -88 182 -204v-40c0 -116 -74 -204 -182 -204h-45v-252h-128v700zM251 411v130c0 41 -15 71 -56 71h-37v-272h37c41 0 56 30 56 71z" />
    <glyph glyph-name="Thorn" unicode="&#xde;" horiz-adv-x="395" 
d="M158 580h45c120 0 182 -88 182 -204v-40c0 -116 -74 -204 -182 -204h-45v-132h-128v700h128v-120zM251 291v130c0 41 -15 71 -56 71h-37v-272h37c41 0 56 30 56 71z" />
    <glyph glyph-name="Q" unicode="Q" horiz-adv-x="394" 
d="M379 370v-40c0 -173 -34 -280 -105 -321l101 -129h-142l-35 110h-1c-123 0 -182 112 -182 340v40c0 228 59 340 182 340s182 -112 182 -340zM149 549v-398c0 -41 15 -71 48 -71s48 30 48 71v398c0 41 -15 71 -48 71s-48 -30 -48 -71z" />
    <glyph glyph-name="R" unicode="R" horiz-adv-x="393" 
d="M350 234l22 -234l-127 -1l-22 257c-3 31 -18 50 -49 50h-16v-306h-128v700h161c108 0 182 -66 182 -186c0 -105 -57 -152 -111 -157v-12c38 -4 80 -24 88 -111zM158 610v-214h25c41 0 56 30 56 71v72c0 41 -15 71 -56 71h-25z" />
    <glyph glyph-name="Racute" unicode="&#x154;" horiz-adv-x="393" 
d="M230 730h-108l43 90h155zM350 234l22 -234l-127 -1l-22 257c-3 31 -18 50 -49 50h-16v-306h-128v700h161c108 0 182 -66 182 -186c0 -105 -57 -152 -111 -157v-12c38 -4 80 -24 88 -111zM158 610v-214h25c41 0 56 30 56 71v72c0 41 -15 71 -56 71h-25z" />
    <glyph glyph-name="Rcaron" unicode="&#x158;" horiz-adv-x="393" 
d="M321 820l-64 -90h-150l-64 90h118l16 -38h10l16 38h118zM350 234l22 -234l-127 -1l-22 257c-3 31 -18 50 -49 50h-16v-306h-128v700h161c108 0 182 -66 182 -186c0 -105 -57 -152 -111 -157v-12c38 -4 80 -24 88 -111zM158 610v-214h25c41 0 56 30 56 71v72
c0 41 -15 71 -56 71h-25z" />
    <glyph glyph-name="uni0156" unicode="&#x156;" horiz-adv-x="393" 
d="M350 234l22 -234l-127 -1l-22 257c-3 31 -18 50 -49 50h-16v-306h-128v700h161c108 0 182 -66 182 -186c0 -105 -57 -152 -111 -157v-12c38 -4 80 -24 88 -111zM158 610v-214h25c41 0 56 30 56 71v72c0 41 -15 71 -56 71h-25zM193 -120h-108l43 90h155z" />
    <glyph glyph-name="S" unicode="S" horiz-adv-x="368" 
d="M352 528v-59h-127v77c0 47 -15 74 -47 74c-28 0 -42 -25 -42 -55c0 -27 14 -53 57 -110l94 -126c56 -75 71 -110 71 -175c0 -96 -78 -164 -172 -164c-90 0 -176 52 -176 192v68h127v-90c0 -57 20 -80 50 -80c27 0 48 23 48 58c0 34 -8 55 -52 113l-94 124
c-57 76 -71 116 -71 182c0 71 57 153 165 153c96 0 169 -69 169 -182z" />
    <glyph glyph-name="Sacute" unicode="&#x15a;" horiz-adv-x="368" 
d="M234 730h-108l43 90h155zM352 528v-59h-127v77c0 47 -15 74 -47 74c-28 0 -42 -25 -42 -55c0 -27 14 -53 57 -110l94 -126c56 -75 71 -110 71 -175c0 -96 -78 -164 -172 -164c-90 0 -176 52 -176 192v68h127v-90c0 -57 20 -80 50 -80c27 0 48 23 48 58
c0 34 -8 55 -52 113l-94 124c-57 76 -71 116 -71 182c0 71 57 153 165 153c96 0 169 -69 169 -182z" />
    <glyph glyph-name="Scaron" unicode="&#x160;" horiz-adv-x="368" 
d="M325 820l-64 -90h-150l-64 90h118l16 -38h10l16 38h118zM352 528v-59h-127v77c0 47 -15 74 -47 74c-28 0 -42 -25 -42 -55c0 -27 14 -53 57 -110l94 -126c56 -75 71 -110 71 -175c0 -96 -78 -164 -172 -164c-90 0 -176 52 -176 192v68h127v-90c0 -57 20 -80 50 -80
c27 0 48 23 48 58c0 34 -8 55 -52 113l-94 124c-57 76 -71 116 -71 182c0 71 57 153 165 153c96 0 169 -69 169 -182z" />
    <glyph glyph-name="Scedilla" unicode="&#x15e;" horiz-adv-x="368" 
d="M358 154c0 -75 -48 -133 -114 -155v-38c0 -62 -29 -81 -86 -81h-42v85h39c16 0 24 7 24 23v2c-87 3 -169 56 -169 192v68h127v-90c0 -57 20 -80 50 -80c27 0 48 23 48 58c0 34 -8 55 -52 113l-94 124c-57 76 -71 116 -71 182c0 71 57 153 165 153c96 0 169 -69 169 -182
v-59h-127v77c0 47 -15 74 -47 74c-28 0 -42 -25 -42 -55c0 -27 14 -53 57 -110l94 -126c56 -75 71 -110 71 -175z" />
    <glyph glyph-name="uni0218" unicode="&#x218;" horiz-adv-x="368" 
d="M352 528v-59h-127v77c0 47 -15 74 -47 74c-28 0 -42 -25 -42 -55c0 -27 14 -53 57 -110l94 -126c56 -75 71 -110 71 -175c0 -96 -78 -164 -172 -164c-90 0 -176 52 -176 192v68h127v-90c0 -57 20 -80 50 -80c27 0 48 23 48 58c0 34 -8 55 -52 113l-94 124
c-57 76 -71 116 -71 182c0 71 57 153 165 153c96 0 169 -69 169 -182zM173 -120h-108l43 90h155z" />
    <glyph glyph-name="uni1E9E" unicode="&#x1e9e;" horiz-adv-x="398" 
d="M381 611l-88 -231c51 -24 95 -83 95 -168v-13c0 -142 -90 -199 -186 -199h-19v90c42 0 71 27 71 76v101c0 52 -32 76 -71 76v81l66 174v12h-91v-610h-128v700h351v-89z" />
    <glyph glyph-name="T" unicode="T" horiz-adv-x="325" 
d="M227 610v-610h-128v610h-89v90h305v-90h-88z" />
    <glyph glyph-name="Tbar" unicode="&#x166;" horiz-adv-x="325" 
d="M315 698v-90h-88v-197h87v-90h-87v-323h-128v323h-89v90h89v197h-89v90h305z" />
    <glyph glyph-name="Tcaron" unicode="&#x164;" horiz-adv-x="325" 
d="M302 820l-64 -90h-150l-64 90h118l16 -38h10l16 38h118zM227 610v-610h-128v610h-89v90h305v-90h-88z" />
    <glyph glyph-name="uni0162" unicode="&#x162;" horiz-adv-x="325" 
d="M10 610v90h305v-90h-88v-652c0 -67 -29 -87 -86 -87h-42v91h39c16 0 24 8 24 25v13h-63v610h-89z" />
    <glyph glyph-name="uni021A" unicode="&#x21a;" horiz-adv-x="325" 
d="M227 610v-610h-128v610h-89v90h305v-90h-88zM151 -120h-108l43 90h155z" />
    <glyph glyph-name="U" unicode="U" horiz-adv-x="387" 
d="M239 151v549h128v-453c0 -180 -65 -257 -173 -257s-174 77 -174 257v453h128v-549c0 -41 13 -71 46 -71s45 30 45 71z" />
    <glyph glyph-name="Uacute" unicode="&#xda;" horiz-adv-x="387" 
d="M242 730h-108l43 90h155zM239 151v549h128v-453c0 -180 -65 -257 -173 -257s-174 77 -174 257v453h128v-549c0 -41 13 -71 46 -71s45 30 45 71z" />
    <glyph glyph-name="Ucircumflex" unicode="&#xdb;" horiz-adv-x="387" 
d="M119 820h150l64 -90h-118l-16 38h-10l-16 -38h-118zM239 151v549h128v-453c0 -180 -65 -257 -173 -257s-174 77 -174 257v453h128v-549c0 -41 13 -71 46 -71s45 30 45 71z" />
    <glyph glyph-name="Udieresis" unicode="&#xdc;" horiz-adv-x="387" 
d="M124 724c-41 0 -65 37 -65 96h128c2 -59 -22 -96 -63 -96zM265 724c-41 0 -65 37 -65 96h129c1 -59 -23 -96 -64 -96zM239 151v549h128v-453c0 -180 -65 -257 -173 -257s-174 77 -174 257v453h128v-549c0 -41 13 -71 46 -71s45 30 45 71z" />
    <glyph glyph-name="Ugrave" unicode="&#xd9;" horiz-adv-x="387" 
d="M211 820l43 -90h-108l-90 90h155zM239 151v549h128v-453c0 -180 -65 -257 -173 -257s-174 77 -174 257v453h128v-549c0 -41 13 -71 46 -71s45 30 45 71z" />
    <glyph glyph-name="Uhungarumlaut" unicode="&#x170;" horiz-adv-x="387" 
d="M152 730h-90l36 90h130zM292 730h-90l36 90h130zM239 151v549h128v-453c0 -180 -65 -257 -173 -257s-174 77 -174 257v453h128v-549c0 -41 13 -71 46 -71s45 30 45 71z" />
    <glyph glyph-name="Umacron" unicode="&#x16a;" horiz-adv-x="387" 
d="M99 740v80h190v-80h-190zM239 151v549h128v-453c0 -180 -65 -257 -173 -257s-174 77 -174 257v453h128v-549c0 -41 13 -71 46 -71s45 30 45 71z" />
    <glyph glyph-name="Uogonek" unicode="&#x172;" horiz-adv-x="387" 
d="M239 151v549h128v-453c0 -176 -62 -254 -166 -257v-2c0 -16 8 -23 24 -23h39v-85h-42c-57 0 -86 19 -86 81v38c-73 25 -116 103 -116 248v453h128v-549c0 -41 13 -71 46 -71s45 30 45 71z" />
    <glyph glyph-name="Uring" unicode="&#x16e;" horiz-adv-x="387" 
d="M89 777c0 33 36 53 105 53s105 -20 105 -53s-36 -53 -105 -53s-105 20 -105 53zM168 778c0 -8 10 -13 26 -13s26 5 26 13c0 7 -10 12 -26 12s-26 -5 -26 -12zM239 151v549h128v-453c0 -180 -65 -257 -173 -257s-174 77 -174 257v453h128v-549c0 -41 13 -71 46 -71
s45 30 45 71z" />
    <glyph glyph-name="V" unicode="V" horiz-adv-x="369" 
d="M367 700l-99 -700h-167l-99 700h133l35 -392l9 -157h12l8 156l35 393h133z" />
    <glyph glyph-name="W" unicode="W" horiz-adv-x="574" 
d="M215 700h144l24 -229l17 -221h12l11 221l19 229h130l-91 -700h-142l-28 238l-18 212h-12l-17 -212l-28 -238h-143l-91 700h130l19 -229l12 -221h12l16 221z" />
    <glyph glyph-name="Wacute" unicode="&#x1e82;" horiz-adv-x="574" 
d="M332 730h-108l43 90h155zM215 700h144l24 -229l17 -221h12l11 221l19 229h130l-91 -700h-142l-28 238l-18 212h-12l-17 -212l-28 -238h-143l-91 700h130l19 -229l12 -221h12l16 221z" />
    <glyph glyph-name="Wcircumflex" unicode="&#x174;" horiz-adv-x="574" 
d="M209 820h150l64 -90h-118l-16 38h-10l-16 -38h-118zM215 700h144l24 -229l17 -221h12l11 221l19 229h130l-91 -700h-142l-28 238l-18 212h-12l-17 -212l-28 -238h-143l-91 700h130l19 -229l12 -221h12l16 221z" />
    <glyph glyph-name="Wdieresis" unicode="&#x1e84;" horiz-adv-x="574" 
d="M214 724c-41 0 -65 37 -65 96h128c2 -59 -22 -96 -63 -96zM355 724c-41 0 -65 37 -65 96h129c1 -59 -23 -96 -64 -96zM215 700h144l24 -229l17 -221h12l11 221l19 229h130l-91 -700h-142l-28 238l-18 212h-12l-17 -212l-28 -238h-143l-91 700h130l19 -229l12 -221h12
l16 221z" />
    <glyph glyph-name="Wgrave" unicode="&#x1e80;" horiz-adv-x="574" 
d="M301 820l43 -90h-108l-90 90h155zM215 700h144l24 -229l17 -221h12l11 221l19 229h130l-91 -700h-142l-28 238l-18 212h-12l-17 -212l-28 -238h-143l-91 700h130l19 -229l12 -221h12l16 221z" />
    <glyph glyph-name="X" unicode="X" horiz-adv-x="383" 
d="M197 432l48 268h136l-84 -341l84 -359h-136l-49 288h-10l-48 -288h-136l84 359l-84 341h136l47 -268h12z" />
    <glyph glyph-name="Y" unicode="Y" horiz-adv-x="383" 
d="M245 700h136l-126 -445v-255h-128v255l-125 445h135l32 -173l16 -139h12l16 139z" />
    <glyph glyph-name="Yacute" unicode="&#xdd;" horiz-adv-x="383" 
d="M174 820h155l-90 -90h-108zM245 700h136l-126 -445v-255h-128v255l-125 445h135l32 -173l16 -139h12l16 139z" />
    <glyph glyph-name="Ycircumflex" unicode="&#x176;" horiz-adv-x="383" 
d="M196 768h-10l-16 -38h-118l64 90h150l64 -90h-118zM245 700h136l-126 -445v-255h-128v255l-125 445h135l32 -173l16 -139h12l16 139z" />
    <glyph glyph-name="Ydieresis" unicode="&#x178;" horiz-adv-x="383" 
d="M121 724c-41 0 -65 37 -65 96h128c2 -59 -22 -96 -63 -96zM262 724c-41 0 -65 37 -65 96h129c1 -59 -23 -96 -64 -96zM245 700h136l-126 -445v-255h-128v255l-125 445h135l32 -173l16 -139h12l16 139z" />
    <glyph glyph-name="Ygrave" unicode="&#x1ef2;" horiz-adv-x="383" 
d="M208 820l43 -90h-108l-90 90h155zM245 700h136l-126 -445v-255h-128v255l-125 445h135l32 -173l16 -139h12l16 139z" />
    <glyph glyph-name="Z" unicode="Z" horiz-adv-x="300" 
d="M144 90h146v-90h-280v90l146 520h-146v90h280v-90z" />
    <glyph glyph-name="Zacute" unicode="&#x179;" horiz-adv-x="300" 
d="M198 730h-108l43 90h155zM144 90h146v-90h-280v90l146 520h-146v90h280v-90z" />
    <glyph glyph-name="Zcaron" unicode="&#x17d;" horiz-adv-x="300" 
d="M289 820l-64 -90h-150l-64 90h118l16 -38h10l16 38h118zM144 90h146v-90h-280v90l146 520h-146v90h280v-90z" />
    <glyph glyph-name="Zdotaccent" unicode="&#x17b;" horiz-adv-x="300" 
d="M150 724c-45 0 -72 37 -72 96h143c0 -59 -27 -96 -71 -96zM144 90h146v-90h-280v90l146 520h-146v90h280v-90z" />
    <glyph glyph-name="I.ss01" horiz-adv-x="225" 
d="M10 700h205v-90h-38v-520h38v-90h-205v90h39v520h-39v90z" />
    <glyph glyph-name="Iacute.ss01" horiz-adv-x="225" 
d="M161 730h-108l43 90h155zM10 700h205v-90h-38v-520h38v-90h-205v90h39v520h-39v90z" />
    <glyph glyph-name="Icircumflex.ss01" horiz-adv-x="225" 
d="M38 820h150l64 -90h-118l-16 38h-10l-16 -38h-118zM10 700h205v-90h-38v-520h38v-90h-205v90h39v520h-39v90z" />
    <glyph glyph-name="Idieresis.ss01" horiz-adv-x="225" 
d="M43 724c-41 0 -65 37 -65 96h128c2 -59 -22 -96 -63 -96zM184 724c-41 0 -65 37 -65 96h129c1 -59 -23 -96 -64 -96zM10 700h205v-90h-38v-520h38v-90h-205v90h39v520h-39v90z" />
    <glyph glyph-name="Igrave.ss01" horiz-adv-x="225" 
d="M130 820l43 -90h-108l-90 90h155zM10 700h205v-90h-38v-520h38v-90h-205v90h39v520h-39v90z" />
    <glyph glyph-name="Imacron.ss01" horiz-adv-x="225" 
d="M40 740v80h147v-80h-147zM10 700h205v-90h-38v-520h38v-90h-205v90h39v520h-39v90z" />
    <glyph glyph-name="Iogonek.ss01" horiz-adv-x="225" 
d="M215 700v-90h-38v-520h38v-90h-63v-12c0 -16 8 -23 24 -23h39v-85h-42c-57 0 -86 19 -86 81v39h-77v90h39v520h-39v90h205z" />
    <glyph glyph-name="R.ss02" horiz-adv-x="403" 
d="M403 0h-134l-85 297h-26v-297h-128v700h161c125 0 183 -88 183 -203c0 -95 -45 -143 -75 -164zM158 610v-223h25c41 0 56 30 56 71v81c0 41 -15 71 -56 71h-25z" />
    <glyph glyph-name="Racute.ss02" horiz-adv-x="403" 
d="M230 730h-108l43 90h155zM403 0h-134l-85 297h-26v-297h-128v700h161c125 0 183 -88 183 -203c0 -95 -45 -143 -75 -164zM158 610v-223h25c41 0 56 30 56 71v81c0 41 -15 71 -56 71h-25z" />
    <glyph glyph-name="Rcaron.ss02" horiz-adv-x="403" 
d="M321 820l-64 -90h-150l-64 90h118l16 -38h10l16 38h118zM403 0h-134l-85 297h-26v-297h-128v700h161c125 0 183 -88 183 -203c0 -95 -45 -143 -75 -164zM158 610v-223h25c41 0 56 30 56 71v81c0 41 -15 71 -56 71h-25z" />
    <glyph glyph-name="uni0156.ss02" horiz-adv-x="403" 
d="M403 0h-134l-85 297h-26v-297h-128v700h161c125 0 183 -88 183 -203c0 -95 -45 -143 -75 -164zM158 610v-223h25c41 0 56 30 56 71v81c0 41 -15 71 -56 71h-25zM193 -120h-108l43 90h155z" />
    <glyph glyph-name="a" unicode="a" horiz-adv-x="369" 
d="M344 0h-123l12 70h-12c-17 -28 -49 -80 -108 -80c-66 0 -103 52 -103 123c0 76 32 131 102 199l107 104v14c0 46 -13 70 -40 70s-40 -24 -40 -70v-65h-125v37c0 116 62 188 165 188s165 -72 165 -189v-401zM219 161v145l-47 -50c-35 -37 -51 -71 -51 -99
c0 -27 12 -47 35 -47c29 0 49 26 63 51z" />
    <glyph glyph-name="aacute" unicode="&#xe1;" horiz-adv-x="369" 
d="M227 610h-108l43 90h155zM344 0h-123l12 70h-12c-17 -28 -49 -80 -108 -80c-66 0 -103 52 -103 123c0 76 32 131 102 199l107 104v14c0 46 -13 70 -40 70s-40 -24 -40 -70v-65h-125v37c0 116 62 188 165 188s165 -72 165 -189v-401zM219 161v145l-47 -50
c-35 -37 -51 -71 -51 -99c0 -27 12 -47 35 -47c29 0 49 26 63 51z" />
    <glyph glyph-name="abreve" unicode="&#x103;" horiz-adv-x="369" 
d="M202 700h104c0 -60 -46 -96 -127 -96s-128 36 -128 96h105c0 -28 9 -39 23 -39s23 11 23 39zM344 0h-123l12 70h-12c-17 -28 -49 -80 -108 -80c-66 0 -103 52 -103 123c0 76 32 131 102 199l107 104v14c0 46 -13 70 -40 70s-40 -24 -40 -70v-65h-125v37
c0 116 62 188 165 188s165 -72 165 -189v-401zM219 161v145l-47 -50c-35 -37 -51 -71 -51 -99c0 -27 12 -47 35 -47c29 0 49 26 63 51z" />
    <glyph glyph-name="acircumflex" unicode="&#xe2;" horiz-adv-x="369" 
d="M104 700h150l64 -90h-118l-16 38h-10l-16 -38h-118zM344 0h-123l12 70h-12c-17 -28 -49 -80 -108 -80c-66 0 -103 52 -103 123c0 76 32 131 102 199l107 104v14c0 46 -13 70 -40 70s-40 -24 -40 -70v-65h-125v37c0 116 62 188 165 188s165 -72 165 -189v-401zM219 161
v145l-47 -50c-35 -37 -51 -71 -51 -99c0 -27 12 -47 35 -47c29 0 49 26 63 51z" />
    <glyph glyph-name="adieresis" unicode="&#xe4;" horiz-adv-x="369" 
d="M109 604c-41 0 -65 37 -65 96h128c2 -59 -22 -96 -63 -96zM250 604c-41 0 -65 37 -65 96h129c1 -59 -23 -96 -64 -96zM344 0h-123l12 70h-12c-17 -28 -49 -80 -108 -80c-66 0 -103 52 -103 123c0 76 32 131 102 199l107 104v14c0 46 -13 70 -40 70s-40 -24 -40 -70v-65
h-125v37c0 116 62 188 165 188s165 -72 165 -189v-401zM219 161v145l-47 -50c-35 -37 -51 -71 -51 -99c0 -27 12 -47 35 -47c29 0 49 26 63 51z" />
    <glyph glyph-name="agrave" unicode="&#xe0;" horiz-adv-x="369" 
d="M196 700l43 -90h-108l-90 90h155zM344 0h-123l12 70h-12c-17 -28 -49 -80 -108 -80c-66 0 -103 52 -103 123c0 76 32 131 102 199l107 104v14c0 46 -13 70 -40 70s-40 -24 -40 -70v-65h-125v37c0 116 62 188 165 188s165 -72 165 -189v-401zM219 161v145l-47 -50
c-35 -37 -51 -71 -51 -99c0 -27 12 -47 35 -47c29 0 49 26 63 51z" />
    <glyph glyph-name="amacron" unicode="&#x101;" horiz-adv-x="369" 
d="M84 620v80h190v-80h-190zM344 0h-123l12 70h-12c-17 -28 -49 -80 -108 -80c-66 0 -103 52 -103 123c0 76 32 131 102 199l107 104v14c0 46 -13 70 -40 70s-40 -24 -40 -70v-65h-125v37c0 116 62 188 165 188s165 -72 165 -189v-401zM219 161v145l-47 -50
c-35 -37 -51 -71 -51 -99c0 -27 12 -47 35 -47c29 0 49 26 63 51z" />
    <glyph glyph-name="aogonek" unicode="&#x105;" horiz-adv-x="369" 
d="M310 -35h39v-85h-42c-57 0 -86 19 -86 81v39l12 70h-12c-17 -28 -49 -80 -108 -80c-66 0 -103 52 -103 123c0 76 32 131 102 199l107 104v14c0 46 -13 70 -40 70s-40 -24 -40 -70v-65h-125v37c0 116 62 188 165 188s165 -72 165 -189v-401h-58v-12c0 -16 8 -23 24 -23z
M219 161v145l-47 -50c-35 -37 -51 -71 -51 -99c0 -27 12 -47 35 -47c29 0 49 26 63 51z" />
    <glyph glyph-name="aring" unicode="&#xe5;" horiz-adv-x="369" 
d="M74 657c0 33 36 53 105 53s105 -20 105 -53s-36 -53 -105 -53s-105 20 -105 53zM153 658c0 -8 10 -13 26 -13s26 5 26 13c0 7 -10 12 -26 12s-26 -5 -26 -12zM344 0h-123l12 70h-12c-17 -28 -49 -80 -108 -80c-66 0 -103 52 -103 123c0 76 32 131 102 199l107 104v14
c0 46 -13 70 -40 70s-40 -24 -40 -70v-65h-125v37c0 116 62 188 165 188s165 -72 165 -189v-401zM219 161v145l-47 -50c-35 -37 -51 -71 -51 -99c0 -27 12 -47 35 -47c29 0 49 26 63 51z" />
    <glyph glyph-name="atilde" unicode="&#xe3;" horiz-adv-x="369" 
d="M113 610h-57v38c0 58 52 69 100 53l64 -21c16 -5 25 0 25 13v7h57v-38c0 -58 -52 -69 -100 -53l-64 21c-16 5 -25 0 -25 -13v-7zM344 0h-123l12 70h-12c-17 -28 -49 -80 -108 -80c-66 0 -103 52 -103 123c0 76 32 131 102 199l107 104v14c0 46 -13 70 -40 70
s-40 -24 -40 -70v-65h-125v37c0 116 62 188 165 188s165 -72 165 -189v-401zM219 161v145l-47 -50c-35 -37 -51 -71 -51 -99c0 -27 12 -47 35 -47c29 0 49 26 63 51z" />
    <glyph glyph-name="ae" unicode="&#xe6;" horiz-adv-x="587" 
d="M572 309v-59h-228v-99c0 -41 14 -71 47 -71s47 30 47 71v51h134c0 -119 -73 -212 -181 -212c-64 0 -113 30 -141 83h-12c-30 -49 -72 -83 -125 -83c-66 0 -103 52 -103 123c0 76 32 131 102 199l107 104v14c0 46 -13 70 -40 70s-40 -24 -40 -70v-65h-125v37
c0 116 67 188 156 188c53 0 88 -27 108 -57h12c21 26 55 57 106 57c103 0 176 -81 176 -281zM344 429v-94h94v94c0 41 -14 71 -47 71s-47 -30 -47 -71zM219 172v131l-47 -46c-36 -36 -49 -65 -49 -96c0 -24 14 -45 37 -45c26 0 46 27 59 56z" />
    <glyph glyph-name="b" unicode="b" 
d="M155 0h-125v700h125v-172h12c21 33 51 62 92 62c76 0 122 -77 122 -280v-40c0 -203 -50 -280 -119 -280c-49 0 -76 33 -104 77h-12zM155 431v-273c12 -25 30 -43 53 -43c29 0 41 32 41 75v209c0 43 -12 75 -41 75c-23 0 -41 -18 -53 -43z" />
    <glyph glyph-name="c" unicode="c" horiz-adv-x="386" 
d="M239 247h132v-26c0 -143 -74 -231 -178 -231c-108 0 -178 81 -178 281v38c0 200 70 281 178 281c104 0 178 -74 178 -229v-20h-132v88c0 41 -13 71 -46 71s-46 -30 -46 -71v-278c0 -41 13 -71 46 -71s46 30 46 71v96z" />
    <glyph glyph-name="cacute" unicode="&#x107;" horiz-adv-x="386" 
d="M241 610h-108l43 90h155zM239 247h132v-26c0 -143 -74 -231 -178 -231c-108 0 -178 81 -178 281v38c0 200 70 281 178 281c104 0 178 -74 178 -229v-20h-132v88c0 41 -13 71 -46 71s-46 -30 -46 -71v-278c0 -41 13 -71 46 -71s46 30 46 71v96z" />
    <glyph glyph-name="ccaron" unicode="&#x10d;" horiz-adv-x="386" 
d="M332 700l-64 -90h-150l-64 90h118l16 -38h10l16 38h118zM239 247h132v-26c0 -143 -74 -231 -178 -231c-108 0 -178 81 -178 281v38c0 200 70 281 178 281c104 0 178 -74 178 -229v-20h-132v88c0 41 -13 71 -46 71s-46 -30 -46 -71v-278c0 -41 13 -71 46 -71s46 30 46 71
v96z" />
    <glyph glyph-name="ccedilla" unicode="&#xe7;" horiz-adv-x="386" 
d="M371 361v-20h-132v88c0 41 -13 71 -46 71s-46 -30 -46 -71v-278c0 -41 13 -71 46 -71s46 30 46 71v96h132v-26c0 -115 -48 -195 -121 -221v-39c0 -62 -29 -81 -86 -81h-42v85h39c16 0 24 7 24 23v2c-103 4 -170 86 -170 281v38c0 200 70 281 178 281
c104 0 178 -74 178 -229z" />
    <glyph glyph-name="cdotaccent" unicode="&#x10b;" horiz-adv-x="386" 
d="M193 604c-45 0 -72 37 -72 96h143c0 -59 -27 -96 -71 -96zM239 247h132v-26c0 -143 -74 -231 -178 -231c-108 0 -178 81 -178 281v38c0 200 70 281 178 281c104 0 178 -74 178 -229v-20h-132v88c0 41 -13 71 -46 71s-46 -30 -46 -71v-278c0 -41 13 -71 46 -71
s46 30 46 71v96z" />
    <glyph glyph-name="d" unicode="d" 
d="M371 700v-700h-125l9 67h-12c-28 -44 -55 -77 -104 -77c-69 0 -119 77 -119 280v40c0 203 46 280 122 280c41 0 71 -29 92 -62h12v172h125zM246 158v273c-12 25 -30 43 -53 43c-29 0 -41 -32 -41 -75v-209c0 -43 12 -75 41 -75c23 0 41 18 53 43z" />
    <glyph glyph-name="eth" unicode="&#xf0;" horiz-adv-x="400" 
d="M371 666h31v-80h-31v-586h-125l9 67h-12c-28 -44 -55 -77 -104 -77c-69 0 -119 77 -119 280v40c0 203 46 280 122 280c41 0 71 -29 92 -62h12v58h-31v80h31v34h125v-34zM246 158v273c-12 25 -30 43 -53 43c-29 0 -41 -32 -41 -75v-209c0 -43 12 -75 41 -75
c23 0 41 18 53 43z" />
    <glyph glyph-name="dcaron" unicode="&#x10f;" horiz-adv-x="506" 
d="M371 700v-700h-125l9 67h-12c-28 -44 -55 -77 -104 -77c-69 0 -119 77 -119 280v40c0 203 46 280 122 280c41 0 71 -29 92 -62h12v172h125zM463 515h-69v185h112zM246 158v273c-12 25 -30 43 -53 43c-29 0 -41 -32 -41 -75v-209c0 -43 12 -75 41 -75c23 0 41 18 53 43z
" />
    <glyph glyph-name="dcroat" unicode="&#x111;" horiz-adv-x="400" 
d="M371 666h31v-80h-31v-586h-125l9 67h-12c-28 -44 -55 -77 -104 -77c-69 0 -119 77 -119 280v40c0 203 46 280 122 280c41 0 71 -29 92 -62h12v58h-31v80h31v34h125v-34zM246 158v273c-12 25 -30 43 -53 43c-29 0 -41 -32 -41 -75v-209c0 -43 12 -75 41 -75
c23 0 41 18 53 43z" />
    <glyph glyph-name="e" unicode="e" horiz-adv-x="390" 
d="M375 309v-59h-228v-99c0 -41 14 -71 47 -71s47 30 47 71v51h134c0 -119 -73 -212 -181 -212s-179 81 -179 281v38c0 200 71 281 179 281s181 -81 181 -281zM147 429v-94h94v94c0 41 -14 71 -47 71s-47 -30 -47 -71z" />
    <glyph glyph-name="eacute" unicode="&#xe9;" horiz-adv-x="390" 
d="M242 610h-108l43 90h155zM375 309v-59h-228v-99c0 -41 14 -71 47 -71s47 30 47 71v51h134c0 -119 -73 -212 -181 -212s-179 81 -179 281v38c0 200 71 281 179 281s181 -81 181 -281zM147 429v-94h94v94c0 41 -14 71 -47 71s-47 -30 -47 -71z" />
    <glyph glyph-name="ecaron" unicode="&#x11b;" horiz-adv-x="390" 
d="M333 700l-64 -90h-150l-64 90h118l16 -38h10l16 38h118zM375 309v-59h-228v-99c0 -41 14 -71 47 -71s47 30 47 71v51h134c0 -119 -73 -212 -181 -212s-179 81 -179 281v38c0 200 71 281 179 281s181 -81 181 -281zM147 429v-94h94v94c0 41 -14 71 -47 71s-47 -30 -47 -71
z" />
    <glyph glyph-name="ecircumflex" unicode="&#xea;" horiz-adv-x="390" 
d="M119 700h150l64 -90h-118l-16 38h-10l-16 -38h-118zM375 309v-59h-228v-99c0 -41 14 -71 47 -71s47 30 47 71v51h134c0 -119 -73 -212 -181 -212s-179 81 -179 281v38c0 200 71 281 179 281s181 -81 181 -281zM147 429v-94h94v94c0 41 -14 71 -47 71s-47 -30 -47 -71z
" />
    <glyph glyph-name="edieresis" unicode="&#xeb;" horiz-adv-x="390" 
d="M124 604c-41 0 -65 37 -65 96h128c2 -59 -22 -96 -63 -96zM265 604c-41 0 -65 37 -65 96h129c1 -59 -23 -96 -64 -96zM375 309v-59h-228v-99c0 -41 14 -71 47 -71s47 30 47 71v51h134c0 -119 -73 -212 -181 -212s-179 81 -179 281v38c0 200 71 281 179 281
s181 -81 181 -281zM147 429v-94h94v94c0 41 -14 71 -47 71s-47 -30 -47 -71z" />
    <glyph glyph-name="edotaccent" unicode="&#x117;" horiz-adv-x="390" 
d="M194 604c-45 0 -72 37 -72 96h143c0 -59 -27 -96 -71 -96zM375 309v-59h-228v-99c0 -41 14 -71 47 -71s47 30 47 71v51h134c0 -119 -73 -212 -181 -212s-179 81 -179 281v38c0 200 71 281 179 281s181 -81 181 -281zM147 429v-94h94v94c0 41 -14 71 -47 71
s-47 -30 -47 -71z" />
    <glyph glyph-name="egrave" unicode="&#xe8;" horiz-adv-x="390" 
d="M211 700l43 -90h-108l-90 90h155zM375 309v-59h-228v-99c0 -41 14 -71 47 -71s47 30 47 71v51h134c0 -119 -73 -212 -181 -212s-179 81 -179 281v38c0 200 71 281 179 281s181 -81 181 -281zM147 429v-94h94v94c0 41 -14 71 -47 71s-47 -30 -47 -71z" />
    <glyph glyph-name="emacron" unicode="&#x113;" horiz-adv-x="390" 
d="M99 620v80h190v-80h-190zM375 309v-59h-228v-99c0 -41 14 -71 47 -71s47 30 47 71v51h134c0 -119 -73 -212 -181 -212s-179 81 -179 281v38c0 200 71 281 179 281s181 -81 181 -281zM147 429v-94h94v94c0 41 -14 71 -47 71s-47 -30 -47 -71z" />
    <glyph glyph-name="eogonek" unicode="&#x119;" horiz-adv-x="390" 
d="M375 309v-59h-228v-99c0 -41 14 -71 47 -71s47 30 47 71v51h134c0 -116 -69 -207 -172 -212v-2c0 -16 8 -23 24 -23h39v-85h-42c-57 0 -86 19 -86 81v38c-76 25 -123 109 -123 272v38c0 200 71 281 179 281s181 -81 181 -281zM147 429v-94h94v94c0 41 -14 71 -47 71
s-47 -30 -47 -71z" />
    <glyph glyph-name="f" unicode="f" horiz-adv-x="317" 
d="M307 490h-105v-490h-125v490h-67v90h67c0 82 46 120 125 120h105v-85h-67c-30 0 -38 -5 -38 -35h105v-90z" />
    <glyph glyph-name="g" unicode="g" 
d="M246 581h125v-522c0 -115 -43 -179 -167 -179h-176v85h171c32 0 48 16 48 48v47h-12c-18 -35 -46 -64 -91 -64c-69 0 -124 72 -124 275v40c0 203 46 279 119 279c42 0 74 -22 104 -76h12zM246 155v268c-12 25 -30 43 -53 43c-29 0 -41 -32 -41 -75v-204
c0 -43 12 -75 41 -75c23 0 41 18 53 43z" />
    <glyph glyph-name="gbreve" unicode="&#x11f;" 
d="M228 700h104c0 -60 -46 -96 -127 -96s-128 36 -128 96h105c0 -28 9 -39 23 -39s23 11 23 39zM246 581h125v-522c0 -115 -43 -179 -167 -179h-176v85h171c32 0 48 16 48 48v47h-12c-18 -35 -46 -64 -91 -64c-69 0 -124 72 -124 275v40c0 203 46 279 119 279
c42 0 74 -22 104 -76h12zM246 155v268c-12 25 -30 43 -53 43c-29 0 -41 -32 -41 -75v-204c0 -43 12 -75 41 -75c23 0 41 18 53 43z" />
    <glyph glyph-name="uni0123" unicode="&#x123;" 
d="M205 700h108l-43 -90h-155zM246 581h125v-522c0 -115 -43 -179 -167 -179h-176v85h171c32 0 48 16 48 48v47h-12c-18 -35 -46 -64 -91 -64c-69 0 -124 72 -124 275v40c0 203 46 279 119 279c42 0 74 -22 104 -76h12zM246 155v268c-12 25 -30 43 -53 43
c-29 0 -41 -32 -41 -75v-204c0 -43 12 -75 41 -75c23 0 41 18 53 43z" />
    <glyph glyph-name="gdotaccent" unicode="&#x121;" 
d="M205 604c-45 0 -72 37 -72 96h143c0 -59 -27 -96 -71 -96zM246 581h125v-522c0 -115 -43 -179 -167 -179h-176v85h171c32 0 48 16 48 48v47h-12c-18 -35 -46 -64 -91 -64c-69 0 -124 72 -124 275v40c0 203 46 279 119 279c42 0 74 -22 104 -76h12zM246 155v268
c-12 25 -30 43 -53 43c-29 0 -41 -32 -41 -75v-204c0 -43 12 -75 41 -75c23 0 41 18 53 43z" />
    <glyph glyph-name="h" unicode="h" horiz-adv-x="397" 
d="M155 0h-125v700h125v-177h12c33 41 65 67 110 67c50 0 95 -41 95 -153v-437h-125v409c0 39 -10 64 -38 64c-26 0 -43 -26 -54 -46v-427z" />
    <glyph glyph-name="hbar" unicode="&#x127;" horiz-adv-x="397" 
d="M277 590c50 0 95 -41 95 -153v-437h-125v409c0 39 -10 64 -38 64c-26 0 -43 -26 -54 -46v-427h-125v586h-32v80h32v34h125v-34h30v-80h-30v-63h12c33 41 65 67 110 67z" />
    <glyph glyph-name="i" unicode="i" horiz-adv-x="185" 
d="M15 700h155c0 -52 -20 -92 -65 -106v-14h50v-580h-125v580h50v14c-48 15 -65 54 -65 106z" />
    <glyph glyph-name="dotlessi" unicode="&#x131;" horiz-adv-x="185" 
d="M30 580h125v-580h-125v580z" />
    <glyph glyph-name="iacute" unicode="&#xed;" horiz-adv-x="185" 
d="M141 610h-108l43 90h155zM30 580h125v-580h-125v580z" />
    <glyph glyph-name="icircumflex" unicode="&#xee;" horiz-adv-x="185" 
d="M18 700h150l64 -90h-118l-16 38h-10l-16 -38h-118zM30 580h125v-580h-125v580z" />
    <glyph glyph-name="idieresis" unicode="&#xef;" horiz-adv-x="185" 
d="M30 604c-37 0 -59 37 -59 96h115c2 -59 -20 -96 -56 -96zM156 604c-36 0 -58 37 -58 96h116c1 -59 -21 -96 -58 -96zM30 580h125v-580h-125v580z" />
    <glyph glyph-name="i.loclTRK" horiz-adv-x="185" 
d="M93 604c-45 0 -72 37 -72 96h143c0 -59 -27 -96 -71 -96zM30 580h125v-580h-125v580z" />
    <glyph glyph-name="igrave" unicode="&#xec;" horiz-adv-x="185" 
d="M110 700l43 -90h-108l-90 90h155zM30 580h125v-580h-125v580z" />
    <glyph glyph-name="imacron" unicode="&#x12b;" horiz-adv-x="185" 
d="M27 620v80h133v-80h-133zM30 580h125v-580h-125v580z" />
    <glyph glyph-name="iogonek" unicode="&#x12f;" horiz-adv-x="185" 
d="M95 0v-12c0 -16 8 -23 24 -23h39v-85h-42c-57 0 -86 19 -86 81v619h50v14c-48 15 -65 54 -65 106h155c0 -52 -20 -92 -65 -106v-14h50v-580h-60z" />
    <glyph glyph-name="j" unicode="j" horiz-adv-x="185" 
d="M105 580h51v-576c0 -76 -31 -124 -138 -124h-26v85c27 0 39 12 39 39l-1 576h50v14c-48 15 -65 54 -65 106h155c0 -52 -20 -92 -65 -106v-14z" />
    <glyph glyph-name="uni0237" unicode="&#x237;" horiz-adv-x="186" 
d="M31 580h125v-576c0 -76 -31 -124 -138 -124h-26v85c27 0 39 12 39 39v576z" />
    <glyph glyph-name="k" unicode="k" horiz-adv-x="429" 
d="M30 0v700h125v-349h12l106 229h134l-125 -271l147 -309h-141l-121 260h-12v-260h-125z" />
    <glyph glyph-name="uni0137" unicode="&#x137;" horiz-adv-x="429" 
d="M30 0v700h125v-349h12l106 229h134l-125 -271l147 -309h-141l-121 260h-12v-260h-125zM218 -120h-108l43 90h155z" />
    <glyph glyph-name="l" unicode="l" horiz-adv-x="185" 
d="M30 700h125v-700h-125v700z" />
    <glyph glyph-name="lacute" unicode="&#x13a;" horiz-adv-x="185" 
d="M141 730h-108l43 90h155zM30 700h125v-700h-125v700z" />
    <glyph glyph-name="lcaron" unicode="&#x13e;" horiz-adv-x="292" 
d="M30 700h125v-700h-125v700zM249 515h-69v185h112z" />
    <glyph glyph-name="uni013C" unicode="&#x13c;" horiz-adv-x="185" 
d="M30 700h125v-700h-125v700zM79 -120h-108l43 90h155z" />
    <glyph glyph-name="lslash" unicode="&#x142;" horiz-adv-x="222" 
d="M174 528l48 15v-89l-48 -15v-439h-125v399l-49 -16v89l49 16v212h125v-172z" />
    <glyph glyph-name="m" unicode="m" horiz-adv-x="607" 
d="M458 0v397c0 39 -10 64 -37 64c-24 0 -42 -26 -53 -46v-415h-124v397c0 39 -10 64 -37 64c-24 0 -42 -26 -53 -46v-415h-124v580h127l-13 -70h12c39 50 73 80 116 80c45 0 75 -27 84 -80h12c35 49 65 80 116 80c53 0 98 -41 98 -153v-437h-124z" />
    <glyph glyph-name="n" unicode="n" horiz-adv-x="397" 
d="M155 0h-125v580h125l-12 -68h12c31 51 69 78 114 78c50 0 103 -41 103 -153v-437h-125v400c0 39 -10 64 -38 64c-26 0 -43 -26 -54 -46v-418z" />
    <glyph glyph-name="nacute" unicode="&#x144;" horiz-adv-x="397" 
d="M249 610h-108l43 90h155zM155 0h-125v580h125l-12 -68h12c31 51 69 78 114 78c50 0 103 -41 103 -153v-437h-125v400c0 39 -10 64 -38 64c-26 0 -43 -26 -54 -46v-418z" />
    <glyph glyph-name="ncaron" unicode="&#x148;" horiz-adv-x="397" 
d="M340 700l-64 -90h-150l-64 90h118l16 -38h10l16 38h118zM155 0h-125v580h125l-12 -68h12c31 51 69 78 114 78c50 0 103 -41 103 -153v-437h-125v400c0 39 -10 64 -38 64c-26 0 -43 -26 -54 -46v-418z" />
    <glyph glyph-name="uni0146" unicode="&#x146;" horiz-adv-x="397" 
d="M155 0h-125v580h125l-12 -68h12c31 51 69 78 114 78c50 0 103 -41 103 -153v-437h-125v400c0 39 -10 64 -38 64c-26 0 -43 -26 -54 -46v-418zM209 -120h-108l43 90h155z" />
    <glyph glyph-name="eng" unicode="&#x14b;" horiz-adv-x="397" 
d="M269 590c50 0 103 -41 103 -153v-410c0 -95 -54 -147 -164 -147h-14v85h14c24 0 39 7 39 45v390c0 39 -10 64 -38 64c-26 0 -43 -26 -54 -46v-418h-125v580h125l-12 -68h12c31 51 69 78 114 78z" />
    <glyph glyph-name="ntilde" unicode="&#xf1;" horiz-adv-x="397" 
d="M135 610h-57v38c0 58 52 69 100 53l64 -21c16 -5 25 0 25 13v7h57v-38c0 -58 -52 -69 -100 -53l-64 21c-16 5 -25 0 -25 -13v-7zM155 0h-125v580h125l-12 -68h12c31 51 69 78 114 78c50 0 103 -41 103 -153v-437h-125v400c0 39 -10 64 -38 64c-26 0 -43 -26 -54 -46v-418
z" />
    <glyph glyph-name="o" unicode="o" horiz-adv-x="392" 
d="M15 271v38c0 200 73 281 181 281s181 -81 181 -281v-38c0 -200 -73 -281 -181 -281s-181 81 -181 281zM149 429v-278c0 -41 14 -71 47 -71s47 30 47 71v278c0 41 -14 71 -47 71s-47 -30 -47 -71z" />
    <glyph glyph-name="oacute" unicode="&#xf3;" horiz-adv-x="392" 
d="M244 610h-108l43 90h155zM15 271v38c0 200 73 281 181 281s181 -81 181 -281v-38c0 -200 -73 -281 -181 -281s-181 81 -181 281zM149 429v-278c0 -41 14 -71 47 -71s47 30 47 71v278c0 41 -14 71 -47 71s-47 -30 -47 -71z" />
    <glyph glyph-name="ocircumflex" unicode="&#xf4;" horiz-adv-x="392" 
d="M121 700h150l64 -90h-118l-16 38h-10l-16 -38h-118zM15 271v38c0 200 73 281 181 281s181 -81 181 -281v-38c0 -200 -73 -281 -181 -281s-181 81 -181 281zM149 429v-278c0 -41 14 -71 47 -71s47 30 47 71v278c0 41 -14 71 -47 71s-47 -30 -47 -71z" />
    <glyph glyph-name="odieresis" unicode="&#xf6;" horiz-adv-x="392" 
d="M126 604c-41 0 -65 37 -65 96h128c2 -59 -22 -96 -63 -96zM267 604c-41 0 -65 37 -65 96h129c1 -59 -23 -96 -64 -96zM15 271v38c0 200 73 281 181 281s181 -81 181 -281v-38c0 -200 -73 -281 -181 -281s-181 81 -181 281zM149 429v-278c0 -41 14 -71 47 -71s47 30 47 71
v278c0 41 -14 71 -47 71s-47 -30 -47 -71z" />
    <glyph glyph-name="ograve" unicode="&#xf2;" horiz-adv-x="392" 
d="M213 700l43 -90h-108l-90 90h155zM15 271v38c0 200 73 281 181 281s181 -81 181 -281v-38c0 -200 -73 -281 -181 -281s-181 81 -181 281zM149 429v-278c0 -41 14 -71 47 -71s47 30 47 71v278c0 41 -14 71 -47 71s-47 -30 -47 -71z" />
    <glyph glyph-name="ohungarumlaut" unicode="&#x151;" horiz-adv-x="392" 
d="M154 610h-90l36 90h130zM294 610h-90l36 90h130zM15 271v38c0 200 73 281 181 281s181 -81 181 -281v-38c0 -200 -73 -281 -181 -281s-181 81 -181 281zM149 429v-278c0 -41 14 -71 47 -71s47 30 47 71v278c0 41 -14 71 -47 71s-47 -30 -47 -71z" />
    <glyph glyph-name="omacron" unicode="&#x14d;" horiz-adv-x="392" 
d="M101 620v80h190v-80h-190zM15 271v38c0 200 73 281 181 281s181 -81 181 -281v-38c0 -200 -73 -281 -181 -281s-181 81 -181 281zM149 429v-278c0 -41 14 -71 47 -71s47 30 47 71v278c0 41 -14 71 -47 71s-47 -30 -47 -71z" />
    <glyph glyph-name="oslash" unicode="&#xf8;" horiz-adv-x="446" 
d="M395 412l51 22v-89l-43 -19v-17v-38c0 -200 -73 -281 -181 -281c-88 0 -153 54 -174 182l-48 -21v89l41 18v13v38c0 200 73 281 181 281c87 0 151 -53 173 -178zM175 429v-113l94 41v72c0 41 -14 71 -47 71s-47 -30 -47 -71zM269 151v117l-94 -41v-76
c0 -41 14 -71 47 -71s47 30 47 71z" />
    <glyph glyph-name="otilde" unicode="&#xf5;" horiz-adv-x="392" 
d="M130 610h-57v38c0 58 52 69 100 53l64 -21c16 -5 25 0 25 13v7h57v-38c0 -58 -52 -69 -100 -53l-64 21c-16 5 -25 0 -25 -13v-7zM15 271v38c0 200 73 281 181 281s181 -81 181 -281v-38c0 -200 -73 -281 -181 -281s-181 81 -181 281zM149 429v-278c0 -41 14 -71 47 -71
s47 30 47 71v278c0 41 -14 71 -47 71s-47 -30 -47 -71z" />
    <glyph glyph-name="oe" unicode="&#x153;" horiz-adv-x="612" 
d="M597 309v-59h-228v-99c0 -41 14 -71 47 -71s47 30 47 71v51h134c0 -119 -74 -212 -170 -212c-56 0 -88 29 -114 59h-12c-25 -30 -66 -59 -117 -59c-98 0 -169 81 -169 281v38c0 200 76 281 174 281c58 0 92 -33 113 -58h12c22 25 57 58 113 58c96 0 170 -81 170 -281z
M245 151v278c0 41 -15 71 -48 71s-48 -30 -48 -71v-278c0 -41 15 -71 48 -71s48 30 48 71zM369 429v-94h94v94c0 41 -14 71 -47 71s-47 -30 -47 -71z" />
    <glyph glyph-name="p" unicode="p" 
d="M30 -120v700h125l-9 -67h12c28 44 55 77 104 77c69 0 119 -77 119 -280v-40c0 -203 -46 -280 -122 -280c-41 0 -71 29 -92 62h-12v-172h-125zM155 422v-273c12 -25 30 -43 53 -43c29 0 41 32 41 75v209c0 43 -12 75 -41 75c-23 0 -41 -18 -53 -43z" />
    <glyph glyph-name="thorn" unicode="&#xfe;" 
d="M381 310v-40c0 -203 -47 -280 -117 -280c-42 0 -67 21 -97 62h-12v-172h-125v820h125v-172h12c30 41 56 62 98 62c70 0 116 -77 116 -280zM249 181v218c0 43 -13 75 -42 75c-23 0 -40 -18 -52 -43v-282c12 -25 29 -43 52 -43c29 0 42 32 42 75z" />
    <glyph glyph-name="q" unicode="q" 
d="M246 580h125v-700h-125v172h-12c-21 -33 -51 -62 -92 -62c-76 0 -122 77 -122 280v40c0 203 50 280 119 280c49 0 76 -33 104 -77h12zM246 149v273c-12 25 -30 43 -53 43c-29 0 -41 -32 -41 -75v-209c0 -43 12 -75 41 -75c23 0 41 18 53 43z" />
    <glyph glyph-name="r" unicode="r" horiz-adv-x="353" 
d="M155 0h-125v580h125l-12 -67h12c35 52 68 77 109 77c44 0 79 -35 79 -154v-160h-125v141c0 33 -8 44 -25 44c-16 0 -31 -20 -38 -35v-426z" />
    <glyph glyph-name="racute" unicode="&#x155;" horiz-adv-x="353" 
d="M228 610h-108l43 90h155zM155 0h-125v580h125l-12 -67h12c35 52 68 77 109 77c44 0 79 -35 79 -154v-160h-125v141c0 33 -8 44 -25 44c-16 0 -31 -20 -38 -35v-426z" />
    <glyph glyph-name="rcaron" unicode="&#x159;" horiz-adv-x="353" 
d="M319 700l-64 -90h-150l-64 90h118l16 -38h10l16 38h118zM155 0h-125v580h125l-12 -67h12c35 52 68 77 109 77c44 0 79 -35 79 -154v-160h-125v141c0 33 -8 44 -25 44c-16 0 -31 -20 -38 -35v-426z" />
    <glyph glyph-name="uni0157" unicode="&#x157;" horiz-adv-x="353" 
d="M155 0h-125v580h125l-12 -67h12c35 52 68 77 109 77c44 0 79 -35 79 -154v-160h-125v141c0 33 -8 44 -25 44c-16 0 -31 -20 -38 -35v-426zM95 -120h-108l43 90h155z" />
    <glyph glyph-name="s" unicode="s" horiz-adv-x="346" 
d="M332 426v-42h-125v55c0 37 -10 62 -39 62c-22 0 -34 -18 -34 -36c0 -31 18 -52 47 -85l85 -97c36 -42 70 -86 70 -152c0 -83 -66 -141 -159 -141c-91 0 -167 53 -167 163v50h125v-63c0 -36 16 -62 43 -62c25 0 35 20 35 41c0 29 -19 50 -47 82l-84 97
c-35 41 -66 83 -66 150c0 69 57 142 154 142c95 0 162 -67 162 -164z" />
    <glyph glyph-name="sacute" unicode="&#x15b;" horiz-adv-x="346" 
d="M218 610h-108l43 90h155zM332 426v-42h-125v55c0 37 -10 62 -39 62c-22 0 -34 -18 -34 -36c0 -31 18 -52 47 -85l85 -97c36 -42 70 -86 70 -152c0 -83 -66 -141 -159 -141c-91 0 -167 53 -167 163v50h125v-63c0 -36 16 -62 43 -62c25 0 35 20 35 41c0 29 -19 50 -47 82
l-84 97c-35 41 -66 83 -66 150c0 69 57 142 154 142c95 0 162 -67 162 -164z" />
    <glyph glyph-name="scaron" unicode="&#x161;" horiz-adv-x="346" 
d="M309 700l-64 -90h-150l-64 90h118l16 -38h10l16 38h118zM332 426v-42h-125v55c0 37 -10 62 -39 62c-22 0 -34 -18 -34 -36c0 -31 18 -52 47 -85l85 -97c36 -42 70 -86 70 -152c0 -83 -66 -141 -159 -141c-91 0 -167 53 -167 163v50h125v-63c0 -36 16 -62 43 -62
c25 0 35 20 35 41c0 29 -19 50 -47 82l-84 97c-35 41 -66 83 -66 150c0 69 57 142 154 142c95 0 162 -67 162 -164z" />
    <glyph glyph-name="scedilla" unicode="&#x15f;" horiz-adv-x="346" 
d="M336 131c0 -63 -38 -112 -98 -132v-38c0 -62 -29 -81 -86 -81h-42v85h39c16 0 24 7 24 23v2c-89 2 -163 55 -163 163v50h125v-63c0 -36 16 -62 43 -62c25 0 35 20 35 41c0 29 -19 50 -47 82l-84 97c-35 41 -66 83 -66 150c0 69 57 142 154 142c95 0 162 -67 162 -164v-42
h-125v55c0 37 -10 62 -39 62c-22 0 -34 -18 -34 -36c0 -31 18 -52 47 -85l85 -97c36 -42 70 -86 70 -152z" />
    <glyph glyph-name="uni0219" unicode="&#x219;" horiz-adv-x="346" 
d="M332 426v-42h-125v55c0 37 -10 62 -39 62c-22 0 -34 -18 -34 -36c0 -31 18 -52 47 -85l85 -97c36 -42 70 -86 70 -152c0 -83 -66 -141 -159 -141c-91 0 -167 53 -167 163v50h125v-63c0 -36 16 -62 43 -62c25 0 35 20 35 41c0 29 -19 50 -47 82l-84 97
c-35 41 -66 83 -66 150c0 69 57 142 154 142c95 0 162 -67 162 -164zM165 -120h-108l43 90h155z" />
    <glyph glyph-name="germandbls" unicode="&#xdf;" horiz-adv-x="381" 
d="M180 0v90c42 0 59 31 59 72v76c0 44 -14 77 -59 77v91c45 0 59 33 59 77v67c0 42 -9 71 -42 71s-42 -29 -42 -71v-550h-125v525c0 110 64 186 168 186c101 0 173 -78 173 -186c0 -101 -61 -143 -105 -158v-12c46 -15 105 -62 105 -166s-55 -189 -166 -189h-25z" />
    <glyph glyph-name="t" unicode="t" horiz-adv-x="281" 
d="M67 700h125v-120h75v-90h-75v-346c0 -49 22 -54 50 -54h29v-90h-73c-79 0 -131 33 -131 144v346h-57v90h57v120z" />
    <glyph glyph-name="tbar" unicode="&#x167;" horiz-adv-x="281" 
d="M271 409v-90h-79v-175c0 -49 22 -54 50 -54h29v-90h-73c-79 0 -131 33 -131 144v175h-57v90h57v81h-57v90h57v120h125v-120h75v-90h-75v-81h79z" />
    <glyph glyph-name="tcaron" unicode="&#x165;" horiz-adv-x="281" 
d="M67 700h125v-120h75v-90h-75v-346c0 -49 22 -54 50 -54h29v-90h-73c-79 0 -131 33 -131 144v346h-57v90h57v120zM290 601h-74v99h89z" />
    <glyph glyph-name="uni0163" unicode="&#x163;" horiz-adv-x="281" 
d="M242 90h29v-132c0 -66 -29 -86 -86 -86h-42v91h39c16 0 24 7 24 24v13h-8c-79 0 -131 33 -131 144v346h-57v90h57v120h125v-120h75v-90h-75v-346c0 -49 22 -54 50 -54z" />
    <glyph glyph-name="uni021B" unicode="&#x21b;" horiz-adv-x="281" 
d="M67 700h125v-120h75v-90h-75v-346c0 -49 22 -54 50 -54h29v-90h-73c-79 0 -131 33 -131 144v346h-57v90h57v120zM179 -120h-108l43 90h155z" />
    <glyph glyph-name="u" unicode="u" horiz-adv-x="397" 
d="M242 580h125v-580h-125l12 68h-12c-31 -51 -69 -78 -114 -78c-50 0 -103 41 -103 153v437h125v-400c0 -39 10 -64 38 -64c26 0 43 26 54 46v418z" />
    <glyph glyph-name="uacute" unicode="&#xfa;" horiz-adv-x="397" 
d="M245 610h-108l43 90h155zM242 580h125v-580h-125l12 68h-12c-31 -51 -69 -78 -114 -78c-50 0 -103 41 -103 153v437h125v-400c0 -39 10 -64 38 -64c26 0 43 26 54 46v418z" />
    <glyph glyph-name="ucircumflex" unicode="&#xfb;" horiz-adv-x="397" 
d="M122 700h150l64 -90h-118l-16 38h-10l-16 -38h-118zM242 580h125v-580h-125l12 68h-12c-31 -51 -69 -78 -114 -78c-50 0 -103 41 -103 153v437h125v-400c0 -39 10 -64 38 -64c26 0 43 26 54 46v418z" />
    <glyph glyph-name="udieresis" unicode="&#xfc;" horiz-adv-x="397" 
d="M127 604c-41 0 -65 37 -65 96h128c2 -59 -22 -96 -63 -96zM268 604c-41 0 -65 37 -65 96h129c1 -59 -23 -96 -64 -96zM242 580h125v-580h-125l12 68h-12c-31 -51 -69 -78 -114 -78c-50 0 -103 41 -103 153v437h125v-400c0 -39 10 -64 38 -64c26 0 43 26 54 46v418z" />
    <glyph glyph-name="ugrave" unicode="&#xf9;" horiz-adv-x="397" 
d="M214 700l43 -90h-108l-90 90h155zM242 580h125v-580h-125l12 68h-12c-31 -51 -69 -78 -114 -78c-50 0 -103 41 -103 153v437h125v-400c0 -39 10 -64 38 -64c26 0 43 26 54 46v418z" />
    <glyph glyph-name="uhungarumlaut" unicode="&#x171;" horiz-adv-x="397" 
d="M155 610h-90l36 90h130zM295 610h-90l36 90h130zM242 580h125v-580h-125l12 68h-12c-31 -51 -69 -78 -114 -78c-50 0 -103 41 -103 153v437h125v-400c0 -39 10 -64 38 -64c26 0 43 26 54 46v418z" />
    <glyph glyph-name="umacron" unicode="&#x16b;" horiz-adv-x="397" 
d="M102 620v80h190v-80h-190zM242 580h125v-580h-125l12 68h-12c-31 -51 -69 -78 -114 -78c-50 0 -103 41 -103 153v437h125v-400c0 -39 10 -64 38 -64c26 0 43 26 54 46v418z" />
    <glyph glyph-name="uogonek" unicode="&#x173;" horiz-adv-x="397" 
d="M331 -35h39v-85h-42c-57 0 -86 19 -86 81v39l12 68h-12c-31 -51 -69 -78 -114 -78c-50 0 -103 41 -103 153v437h125v-400c0 -39 10 -64 38 -64c26 0 43 26 54 46v418h125v-580h-60v-12c0 -16 8 -23 24 -23z" />
    <glyph glyph-name="uring" unicode="&#x16f;" horiz-adv-x="397" 
d="M92 657c0 33 36 53 105 53s105 -20 105 -53s-36 -53 -105 -53s-105 20 -105 53zM171 658c0 -8 10 -13 26 -13s26 5 26 13c0 7 -10 12 -26 12s-26 -5 -26 -12zM242 580h125v-580h-125l12 68h-12c-31 -51 -69 -78 -114 -78c-50 0 -103 41 -103 153v437h125v-400
c0 -39 10 -64 38 -64c26 0 43 26 54 46v418z" />
    <glyph glyph-name="v" unicode="v" horiz-adv-x="385" 
d="M383 580l-115 -580h-151l-115 580h134l37 -288l14 -149h12l13 149l37 288h134z" />
    <glyph glyph-name="w" unicode="w" horiz-adv-x="607" 
d="M229 580h149l32 -228l16 -182h12l12 182l24 228h131l-97 -580h-148l-36 252l-15 152h-12l-14 -152l-36 -252h-148l-97 580h131l24 -228l12 -182h12l16 182z" />
    <glyph glyph-name="wacute" unicode="&#x1e83;" horiz-adv-x="607" 
d="M350 610h-108l43 90h155zM229 580h149l32 -228l16 -182h12l12 182l24 228h131l-97 -580h-148l-36 252l-15 152h-12l-14 -152l-36 -252h-148l-97 580h131l24 -228l12 -182h12l16 182z" />
    <glyph glyph-name="wcircumflex" unicode="&#x175;" horiz-adv-x="607" 
d="M227 700h150l64 -90h-118l-16 38h-10l-16 -38h-118zM229 580h149l32 -228l16 -182h12l12 182l24 228h131l-97 -580h-148l-36 252l-15 152h-12l-14 -152l-36 -252h-148l-97 580h131l24 -228l12 -182h12l16 182z" />
    <glyph glyph-name="wdieresis" unicode="&#x1e85;" horiz-adv-x="607" 
d="M232 604c-41 0 -65 37 -65 96h128c2 -59 -22 -96 -63 -96zM373 604c-41 0 -65 37 -65 96h129c1 -59 -23 -96 -64 -96zM229 580h149l32 -228l16 -182h12l12 182l24 228h131l-97 -580h-148l-36 252l-15 152h-12l-14 -152l-36 -252h-148l-97 580h131l24 -228l12 -182h12
l16 182z" />
    <glyph glyph-name="wgrave" unicode="&#x1e81;" horiz-adv-x="607" 
d="M319 700l43 -90h-108l-90 90h155zM229 580h149l32 -228l16 -182h12l12 182l24 228h131l-97 -580h-148l-36 252l-15 152h-12l-14 -152l-36 -252h-148l-97 580h131l24 -228l12 -182h12l16 182z" />
    <glyph glyph-name="x" unicode="x" horiz-adv-x="375" 
d="M193 355l43 225h137l-88 -280l88 -300h-137l-44 245h-10l-43 -245h-137l88 300l-88 280h137l42 -225h12z" />
    <glyph glyph-name="y" unicode="y" horiz-adv-x="382" 
d="M169 0h-58l-109 580h135l35 -300l12 -157h12l14 157l35 300h135l-109 -570c-18 -92 -38 -130 -117 -130h-114v85h90c28 0 39 5 39 35z" />
    <glyph glyph-name="yacute" unicode="&#xfd;" horiz-adv-x="382" 
d="M239 610h-108l43 90h155zM169 0h-58l-109 580h135l35 -300l12 -157h12l14 157l35 300h135l-109 -570c-18 -92 -38 -130 -117 -130h-114v85h90c28 0 39 5 39 35z" />
    <glyph glyph-name="ycircumflex" unicode="&#x177;" horiz-adv-x="382" 
d="M116 700h150l64 -90h-118l-16 38h-10l-16 -38h-118zM169 0h-58l-109 580h135l35 -300l12 -157h12l14 157l35 300h135l-109 -570c-18 -92 -38 -130 -117 -130h-114v85h90c28 0 39 5 39 35z" />
    <glyph glyph-name="ydieresis" unicode="&#xff;" horiz-adv-x="382" 
d="M121 604c-41 0 -65 37 -65 96h128c2 -59 -22 -96 -63 -96zM262 604c-41 0 -65 37 -65 96h129c1 -59 -23 -96 -64 -96zM169 0h-58l-109 580h135l35 -300l12 -157h12l14 157l35 300h135l-109 -570c-18 -92 -38 -130 -117 -130h-114v85h90c28 0 39 5 39 35z" />
    <glyph glyph-name="ygrave" unicode="&#x1ef3;" horiz-adv-x="382" 
d="M208 700l43 -90h-108l-90 90h155zM169 0h-58l-109 580h135l35 -300l12 -157h12l14 157l35 300h135l-109 -570c-18 -92 -38 -130 -117 -130h-114v85h90c28 0 39 5 39 35z" />
    <glyph glyph-name="z" unicode="z" horiz-adv-x="300" 
d="M144 90h146v-90h-280v86l146 404h-146v90h280v-86z" />
    <glyph glyph-name="zacute" unicode="&#x17a;" horiz-adv-x="300" 
d="M198 610h-108l43 90h155zM144 90h146v-90h-280v86l146 404h-146v90h280v-86z" />
    <glyph glyph-name="zcaron" unicode="&#x17e;" horiz-adv-x="300" 
d="M289 700l-64 -90h-150l-64 90h118l16 -38h10l16 38h118zM144 90h146v-90h-280v86l146 404h-146v90h280v-86z" />
    <glyph glyph-name="zdotaccent" unicode="&#x17c;" horiz-adv-x="300" 
d="M150 604c-45 0 -72 37 -72 96h143c0 -59 -27 -96 -71 -96zM144 90h146v-90h-280v86l146 404h-146v90h280v-86z" />
    <glyph glyph-name="a.ss03" 
d="M20 270v40c0 203 50 280 119 280c42 0 74 -23 104 -76h12l-9 66h125v-580h-125l9 66h-12c-30 -53 -62 -76 -104 -76c-69 0 -119 77 -119 280zM246 157v266c-12 25 -30 43 -53 43c-29 0 -41 -32 -41 -75v-202c0 -43 12 -75 41 -75c23 0 41 18 53 43z" />
    <glyph glyph-name="aacute.ss03" 
d="M249 610h-108l43 90h155z" />
    <glyph glyph-name="abreve.ss03" 
d="M224 700h104c0 -60 -46 -96 -127 -96s-128 36 -128 96h105c0 -28 9 -39 23 -39s23 11 23 39z" />
    <glyph glyph-name="acircumflex.ss03" 
d="M126 700h150l64 -90h-118l-16 38h-10l-16 -38h-118z" />
    <glyph glyph-name="adieresis.ss03" 
d="M131 604c-41 0 -65 37 -65 96h128c2 -59 -22 -96 -63 -96zM272 604c-41 0 -65 37 -65 96h129c1 -59 -23 -96 -64 -96z" />
    <glyph glyph-name="agrave.ss03" 
d="M218 700l43 -90h-108l-90 90h155z" />
    <glyph glyph-name="amacron.ss03" 
d="M106 620v80h190v-80h-190z" />
    <glyph glyph-name="aogonek.ss03" 
d="M374 -120h-42c-57 0 -86 19 -86 81v39h65v-12c0 -16 8 -23 24 -23h39v-85z" />
    <glyph glyph-name="aring.ss03" 
d="M96 657c0 33 36 53 105 53s105 -20 105 -53s-36 -53 -105 -53s-105 20 -105 53zM175 658c0 -8 10 -13 26 -13s26 5 26 13c0 7 -10 12 -26 12s-26 -5 -26 -12z" />
    <glyph glyph-name="atilde.ss03" 
d="M135 610h-57v38c0 58 52 69 100 53l64 -21c16 -5 25 0 25 13v7h57v-38c0 -58 -52 -69 -100 -53l-64 21c-16 5 -25 0 -25 -13v-7z" />
    <glyph glyph-name="W_W_W" horiz-adv-x="1522" 
d="M93 0l-91 700h130l19 -239l12 -221h12l16 221l24 239h144l24 -239l17 -221h12l16 221l24 239h144l24 -239l17 -221h12l16 221l24 239h144l24 -239l17 -221h12l16 221l24 239h144l24 -239l17 -221h12l16 221l24 239h144l24 -239l17 -221h12l11 221l19 239h130l-91 -700
h-143l-28 248l-18 212h-12l-17 -212l-28 -248h-134l-28 248l-18 212h-12l-17 -212l-28 -248h-134l-28 248l-18 212h-12l-17 -212l-28 -248h-134l-28 248l-18 212h-12l-17 -212l-28 -248h-134l-28 248l-18 212h-12l-17 -212l-28 -248h-142z" />
    <glyph glyph-name="f_t" horiz-adv-x="520" 
d="M481 90h29v-90h-73c-79 0 -131 33 -131 144v346h-104v-490h-125v490h-67v90h67c0 82 46 120 125 120h72v-85h-34c-30 0 -38 -5 -38 -35h104v120h125v-120h75v-90h-75v-346c0 -49 22 -54 50 -54z" />
    <glyph glyph-name="t_t" horiz-adv-x="510" 
d="M471 90h29v-90h-73c-79 0 -131 33 -131 144v346h-104v-346c0 -49 22 -54 50 -54h29v-90h-73c-79 0 -131 33 -131 144v346h-57v90h57v120h125v-120h104v120h125v-120h75v-90h-75v-346c0 -49 22 -54 50 -54z" />
    <glyph glyph-name="w_w_w" horiz-adv-x="1635" 
d="M1311 252l-36 -252h-144l-36 252l-15 162h-12l-14 -162l-36 -252h-144l-36 252l-15 162h-12l-14 -162l-36 -252h-144l-36 252l-15 162h-12l-14 -162l-36 -252h-144l-36 252l-15 162h-12l-14 -162l-36 -252h-148l-97 580h131l24 -228l12 -192h12l16 192l32 228h149
l32 -228l16 -192h12l16 192l32 228h149l32 -228l16 -192h12l16 192l32 228h149l32 -228l16 -192h12l16 192l32 228h149l32 -228l16 -192h12l16 192l32 228h149l32 -228l16 -192h12l12 192l24 228h131l-97 -580h-148l-36 252l-15 162h-12z" />
    <glyph glyph-name="zero" unicode="0" horiz-adv-x="394" 
d="M15 330v40c0 228 59 340 182 340s182 -112 182 -340v-40c0 -228 -59 -340 -182 -340s-182 112 -182 340zM158 339l87 141v69c0 41 -15 71 -48 71s-48 -30 -48 -71v-137l-3 -73h12zM245 288l3 73h-13l-86 -141v-69c0 -41 15 -71 48 -71s48 30 48 71v137z" />
    <glyph glyph-name="one" unicode="1" horiz-adv-x="234" 
d="M119 700h85v-700h-128v471l5 74h-71v75c59 0 89 30 109 80z" />
    <glyph glyph-name="two" unicode="2" horiz-adv-x="363" 
d="M353 514c0 -133 -65 -246 -207 -407v-12h207v-95h-343v97c165 189 210 295 210 446c0 48 -7 77 -35 77s-36 -29 -36 -77v-89h-134v60c0 116 69 196 171 196s167 -72 167 -196z" />
    <glyph glyph-name="three" unicode="3" horiz-adv-x="380" 
d="M180 314l-56 2v88l56 2c41 1 56 48 56 92v51c0 41 -13 71 -46 71s-46 -30 -46 -71v-74h-134v44c0 123 76 191 180 191c108 0 177 -82 177 -183c0 -97 -59 -150 -115 -160v-12c56 -13 118 -62 118 -172c0 -104 -72 -193 -180 -193c-104 0 -180 78 -180 201v54h134v-94
c0 -41 13 -71 46 -71s46 30 46 71v72c0 44 -15 90 -56 91z" />
    <glyph glyph-name="four" unicode="4" horiz-adv-x="366" 
d="M314 700v-424h42v-90h-42v-186h-128v186h-176v83l118 431h186zM179 589l-70 -301v-12h77v182l5 131h-12z" />
    <glyph glyph-name="five" unicode="5" horiz-adv-x="395" 
d="M246 151v182c0 41 -15 71 -48 71s-48 -30 -48 -71v-10h-126l1 377h334v-93h-209v-151h12c19 32 41 56 86 56c82 0 132 -95 132 -261c0 -173 -72 -261 -180 -261c-118 0 -178 96 -178 227v11h132v-77c0 -41 13 -71 46 -71s46 30 46 71z" />
    <glyph glyph-name="six" unicode="6" horiz-adv-x="387" 
d="M149 549v-152h11c23 24 48 42 86 42c58 0 131 -58 131 -222c0 -144 -69 -227 -181 -227s-181 88 -181 338v44c0 250 72 338 184 338s172 -94 172 -218h-128v57c0 41 -14 71 -47 71s-47 -30 -47 -71zM149 276v-125c0 -41 14 -71 47 -71s47 30 47 71v125
c0 41 -14 71 -47 71s-47 -30 -47 -71z" />
    <glyph glyph-name="seven" unicode="7" horiz-adv-x="309" 
d="M299 700v-95c-107 -125 -95 -322 -95 -605h-130c0 372 45 496 117 598v7h-186v95h294z" />
    <glyph glyph-name="eight" unicode="8" horiz-adv-x="384" 
d="M192 711c108 0 180 -81 180 -182c0 -98 -60 -153 -106 -163v-11c44 -12 108 -69 108 -174c0 -104 -74 -191 -182 -191s-182 87 -182 191c0 105 64 162 108 174v11c-46 10 -106 65 -106 163c0 101 72 182 180 182zM144 550v-67c0 -44 15 -71 48 -72c33 1 48 28 48 72v67
c0 41 -15 71 -48 71s-48 -30 -48 -71zM144 238v-87c0 -41 15 -71 48 -71s48 30 48 71v87c0 44 -15 71 -48 72c-33 -1 -48 -28 -48 -72z" />
    <glyph glyph-name="nine" unicode="9" horiz-adv-x="387" 
d="M238 151v152h-11c-23 -24 -48 -42 -86 -42c-58 0 -131 58 -131 222c0 144 69 227 181 227s181 -88 181 -338v-44c0 -250 -72 -338 -184 -338s-172 94 -172 218h128v-57c0 -41 14 -71 47 -71s47 30 47 71zM238 424v125c0 41 -14 71 -47 71s-47 -30 -47 -71v-125
c0 -41 14 -71 47 -71s47 30 47 71z" />
    <glyph glyph-name="uni24EA" unicode="&#x24ea;" horiz-adv-x="526" 
d="M15 330v40c0 196 82 340 248 340s248 -144 248 -340v-40c0 -196 -82 -340 -248 -340s-248 144 -248 340zM97 366v-32c0 -177 55 -265 166 -265s166 88 166 265v32c0 177 -53 265 -166 265c-111 0 -166 -88 -166 -265zM149 339v25c0 142 37 212 113 212
c77 0 114 -70 114 -212v-25c0 -142 -37 -211 -114 -211c-76 0 -113 69 -113 211zM238 345l54 88v35c0 25 -9 43 -30 43c-20 0 -29 -18 -29 -43l-1 -77l-1 -46h7zM292 313l2 46h-8l-54 -88l1 -35c0 -25 9 -44 29 -44c21 0 30 19 30 44v77z" />
    <glyph glyph-name="uni2460" unicode="&#x2460;" horiz-adv-x="526" 
d="M15 330v40c0 196 82 340 248 340s248 -144 248 -340v-40c0 -196 -82 -340 -248 -340s-248 144 -248 340zM97 366v-32c0 -177 55 -265 166 -265s166 88 166 265v32c0 177 -53 265 -166 265c-111 0 -166 -88 -166 -265zM250 570h53v-436h-80v283l3 45h-44v58
c36 0 55 19 68 50z" />
    <glyph glyph-name="uni2461" unicode="&#x2461;" horiz-adv-x="526" 
d="M15 330v40c0 196 82 340 248 340s248 -144 248 -340v-40c0 -196 -82 -340 -248 -340s-248 144 -248 340zM97 366v-32c0 -177 55 -265 166 -265s166 88 166 265v32c0 177 -53 265 -166 265c-111 0 -166 -88 -166 -265zM369 457c0 -83 -41 -155 -129 -244v-7h130l-1 -69
h-213v70c102 118 132 174 131 268c-1 19 -5 37 -22 37c-18 0 -23 -18 -23 -37v-55h-83v37c0 72 43 122 106 122c64 0 104 -45 104 -122z" />
    <glyph glyph-name="uni2462" unicode="&#x2462;" horiz-adv-x="526" 
d="M15 330v40c0 196 82 340 248 340s248 -144 248 -340v-40c0 -196 -82 -340 -248 -340s-248 144 -248 340zM97 366v-32c0 -177 55 -265 166 -265s166 88 166 265v32c0 177 -53 265 -166 265c-111 0 -166 -88 -166 -265zM256 324l-35 2v65h35c25 1 34 30 34 58v18
c0 25 -8 43 -28 43c-21 0 -29 -18 -29 -43v-37h-83v27c0 77 47 119 112 119c67 0 110 -51 110 -114c0 -60 -37 -93 -72 -99v-8c35 -8 74 -39 74 -107c0 -65 -45 -120 -112 -120c-65 0 -112 48 -112 125v33h83v-49c0 -25 8 -44 29 -44c20 0 28 19 28 44v31c0 28 -9 56 -34 56
z" />
    <glyph glyph-name="uni2463" unicode="&#x2463;" horiz-adv-x="526" 
d="M15 330v40c0 196 82 340 248 340s248 -144 248 -340v-40c0 -196 -82 -340 -248 -340s-248 144 -248 340zM97 366v-32c0 -177 55 -265 166 -265s166 88 166 265v32c0 177 -53 265 -166 265c-111 0 -166 -88 -166 -265zM336 569v-260h26v-65h-26v-111h-80v111h-109v64
l70 261h119zM253 500l-39 -184v-7h42v103l4 88h-7z" />
    <glyph glyph-name="uni2464" unicode="&#x2464;" horiz-adv-x="526" 
d="M15 330v40c0 196 82 340 248 340s248 -144 248 -340v-40c0 -196 -82 -340 -248 -340s-248 144 -248 340zM97 366v-32c0 -177 55 -265 166 -265s166 88 166 265v32c0 177 -53 265 -166 265c-111 0 -166 -88 -166 -265zM295 230v104c0 26 -9 45 -30 45
c-20 0 -30 -19 -30 -45v-6h-78l1 235h208v-65h-130v-79h7c12 19 25 36 53 36c52 0 83 -49 83 -167c0 -113 -45 -167 -112 -167c-74 0 -111 59 -111 141v7h82v-39c0 -25 8 -44 29 -44c20 0 28 19 28 44z" />
    <glyph glyph-name="uni2465" unicode="&#x2465;" horiz-adv-x="526" 
d="M15 330v40c0 196 82 340 248 340s248 -144 248 -340v-40c0 -196 -82 -340 -248 -340s-248 144 -248 340zM97 366v-32c0 -177 55 -265 166 -265s166 88 166 265v32c0 177 -53 265 -166 265c-111 0 -166 -88 -166 -265zM231 467v-81h6c15 15 30 26 54 26
c36 0 82 -32 82 -143c-1 -90 -43 -141 -113 -141s-113 54 -113 210v28c0 156 45 211 115 210c69 0 107 -58 107 -136h-80v27c0 25 -9 43 -30 43c-20 0 -28 -18 -28 -43zM231 301v-64c0 -25 8 -44 28 -44c21 0 30 19 30 44v64c0 25 -9 44 -30 44c-20 0 -28 -19 -28 -44z" />
    <glyph glyph-name="uni2466" unicode="&#x2466;" horiz-adv-x="526" 
d="M15 330v40c0 196 82 340 248 340s248 -144 248 -340v-40c0 -196 -82 -340 -248 -340s-248 144 -248 340zM97 366v-32c0 -177 55 -265 166 -265s166 88 166 265v32c0 177 -53 265 -166 265c-111 0 -166 -88 -166 -265zM355 564v-69c-66 -77 -59 -191 -59 -367h-81
c0 232 25 299 67 363v4h-110v69h183z" />
    <glyph glyph-name="uni2467" unicode="&#x2467;" horiz-adv-x="526" 
d="M15 330v40c0 196 82 340 248 340s248 -144 248 -340v-40c0 -196 -82 -340 -248 -340s-248 144 -248 340zM97 366v-32c0 -177 55 -265 166 -265s166 88 166 265v32c0 177 -53 265 -166 265c-111 0 -166 -88 -166 -265zM263 577c67 0 112 -51 112 -114
c0 -61 -37 -95 -66 -101v-7c28 -7 67 -43 67 -108s-46 -119 -113 -119s-113 54 -113 119s40 101 67 108v7c-29 6 -66 40 -66 101c0 63 45 114 112 114zM233 468v-28c0 -28 10 -45 30 -46c21 1 30 18 30 46v28c0 25 -9 43 -30 43c-20 0 -30 -18 -30 -43zM233 277v-40
c0 -25 10 -44 30 -44c21 0 30 19 30 44v40c0 28 -9 45 -30 46c-20 -1 -30 -18 -30 -46z" />
    <glyph glyph-name="uni2468" unicode="&#x2468;" horiz-adv-x="526" 
d="M511 370v-40c0 -196 -82 -340 -248 -340s-248 144 -248 340v40c0 196 82 340 248 340s248 -144 248 -340zM429 334v32c0 177 -55 265 -166 265s-166 -88 -166 -265v-32c0 -177 53 -265 166 -265c111 0 166 88 166 265zM295 233v81h-6c-15 -15 -30 -26 -54 -26
c-36 0 -82 32 -82 143c1 90 43 141 113 141s113 -54 113 -210v-28c0 -156 -45 -211 -115 -210c-69 0 -107 58 -107 136h80v-27c0 -25 9 -43 30 -43c20 0 28 18 28 43zM295 399v64c0 25 -8 44 -28 44c-21 0 -30 -19 -30 -44v-64c0 -25 9 -44 30 -44c20 0 28 19 28 44z" />
    <glyph glyph-name="uni2080" unicode="&#x2080;" horiz-adv-x="274" 
d="M15 101v27c0 153 40 228 122 228s122 -75 122 -228v-27c0 -153 -40 -228 -122 -228s-122 75 -122 228zM111 107l58 95v37c0 27 -10 47 -32 47s-32 -20 -32 -47v-83l-2 -49h8zM169 73l2 49h-9l-57 -95v-37c0 -27 10 -47 32 -47s32 20 32 47v83z" />
    <glyph glyph-name="uni2081" unicode="&#x2081;" horiz-adv-x="150" 
d="M73 349h57v-469h-86v304l3 49h-47v62c39 0 59 21 73 54z" />
    <glyph glyph-name="uni2082" unicode="&#x2082;" horiz-adv-x="260" 
d="M245 224c0 -89 -45 -166 -140 -262v-8h140v-74h-230v75c110 127 142 188 140 289c0 20 -4 39 -23 39s-24 -19 -24 -39v-60h-90v40c0 78 46 132 115 132c68 0 112 -49 112 -132z" />
    <glyph glyph-name="uni2083" unicode="&#x2083;" horiz-adv-x="271" 
d="M129 85l-38 2v69l38 1c27 1 37 32 37 62v19c0 27 -9 47 -31 47s-31 -20 -31 -47v-40h-89v30c0 82 51 128 120 128c73 0 119 -55 119 -123c0 -65 -40 -100 -77 -107v-8c37 -9 79 -42 79 -115c0 -70 -48 -130 -121 -130c-69 0 -120 53 -120 135v36h89v-53
c0 -27 9 -47 31 -47s31 20 31 47v33c0 30 -10 60 -37 61z" />
    <glyph glyph-name="uni2084" unicode="&#x2084;" horiz-adv-x="247" 
d="M209 349v-280h28v-70h-28v-119h-86v119h-118v69l76 281h128zM119 275l-42 -198v-8h46v111l4 95h-8z" />
    <glyph glyph-name="uni2085" unicode="&#x2085;" horiz-adv-x="270" 
d="M165 -9v112c0 28 -10 48 -32 48s-32 -20 -32 -48v-7h-85l1 253h224v-70h-140v-85h8c12 21 27 39 57 39c55 0 89 -53 89 -180c0 -121 -49 -180 -121 -180c-79 0 -119 65 -119 152v8h88v-42c0 -27 9 -47 31 -47s31 20 31 47z" />
    <glyph glyph-name="uni2086" unicode="&#x2086;" horiz-adv-x="273" 
d="M105 238v-87h7c16 16 32 28 58 28c39 0 88 -34 88 -154c-1 -96 -47 -152 -122 -152s-121 59 -121 227v29c0 168 48 227 123 227s116 -63 116 -146h-86v28c0 27 -10 47 -32 47s-31 -20 -31 -47zM105 60v-69c0 -27 9 -47 31 -47s32 20 32 47v69c0 27 -10 47 -32 47
s-31 -20 -31 -47z" />
    <glyph glyph-name="uni2087" unicode="&#x2087;" horiz-adv-x="207" 
d="M202 349v-74c-71 -83 -63 -205 -63 -395h-87c0 249 27 322 72 391v4h-119v74h197z" />
    <glyph glyph-name="uni2088" unicode="&#x2088;" horiz-adv-x="274" 
d="M137 356c72 0 120 -54 120 -122c0 -65 -40 -102 -71 -109v-7c30 -8 73 -46 73 -117c0 -69 -50 -128 -122 -128c-73 0 -122 59 -122 128c0 71 43 109 72 117v7c-31 7 -71 44 -71 109c0 68 48 122 121 122zM104 239v-30c0 -30 11 -48 33 -49c22 1 32 19 32 49v30
c0 27 -10 47 -32 47s-33 -20 -33 -47zM104 34v-43c0 -27 11 -47 33 -47s32 20 32 47v43c0 30 -10 48 -32 49c-22 -1 -33 -19 -33 -49z" />
    <glyph glyph-name="uni2089" unicode="&#x2089;" horiz-adv-x="273" 
d="M168 -9v87h-7c-16 -16 -32 -28 -58 -28c-39 0 -88 34 -88 154c1 96 47 152 122 152s121 -59 121 -227v-29c0 -168 -48 -227 -123 -227s-116 63 -116 146h86v-28c0 -27 10 -47 32 -47s31 20 31 47zM168 169v69c0 27 -9 47 -31 47s-32 -20 -32 -47v-69c0 -27 10 -47 32 -47
s31 20 31 47z" />
    <glyph glyph-name="uni2070" unicode="&#x2070;" horiz-adv-x="274" 
d="M15 452v27c0 153 40 228 122 228s122 -75 122 -228v-27c0 -153 -40 -228 -122 -228s-122 75 -122 228zM111 458l58 95v37c0 27 -10 47 -32 47s-32 -20 -32 -47v-83l-2 -49h8zM169 424l2 49h-9l-57 -95v-37c0 -27 10 -47 32 -47s32 20 32 47v83z" />
    <glyph glyph-name="uni00B9" unicode="&#xb9;" horiz-adv-x="150" 
d="M73 700h57v-469h-86v304l3 49h-47v62c39 0 59 21 73 54z" />
    <glyph glyph-name="uni00B2" unicode="&#xb2;" horiz-adv-x="260" 
d="M245 575c0 -89 -45 -166 -140 -262v-8h140v-74h-230v75c110 127 142 188 140 289c0 20 -4 39 -23 39s-24 -19 -24 -39v-60h-90v40c0 78 46 132 115 132c68 0 112 -49 112 -132z" />
    <glyph glyph-name="uni00B3" unicode="&#xb3;" horiz-adv-x="271" 
d="M129 436l-38 2v69l38 1c27 1 37 32 37 62v19c0 27 -9 47 -31 47s-31 -20 -31 -47v-40h-89v30c0 82 51 128 120 128c73 0 119 -55 119 -123c0 -65 -40 -100 -77 -107v-8c37 -9 79 -42 79 -115c0 -70 -48 -130 -121 -130c-69 0 -120 53 -120 135v36h89v-53
c0 -27 9 -47 31 -47s31 20 31 47v33c0 30 -10 60 -37 61z" />
    <glyph glyph-name="uni2074" unicode="&#x2074;" horiz-adv-x="247" 
d="M209 700v-280h28v-70h-28v-119h-86v119h-118v69l76 281h128zM119 626l-42 -198v-8h46v111l4 95h-8z" />
    <glyph glyph-name="uni2075" unicode="&#x2075;" horiz-adv-x="270" 
d="M165 342v112c0 28 -10 48 -32 48s-32 -20 -32 -48v-7h-85l1 253h224v-70h-140v-85h8c12 21 27 39 57 39c55 0 89 -53 89 -180c0 -121 -49 -180 -121 -180c-79 0 -119 65 -119 152v8h88v-42c0 -27 9 -47 31 -47s31 20 31 47z" />
    <glyph glyph-name="uni2076" unicode="&#x2076;" horiz-adv-x="273" 
d="M105 589v-87h7c16 16 32 28 58 28c39 0 88 -34 88 -154c-1 -96 -47 -152 -122 -152s-121 59 -121 227v29c0 168 48 227 123 227s116 -63 116 -146h-86v28c0 27 -10 47 -32 47s-31 -20 -31 -47zM105 411v-69c0 -27 9 -47 31 -47s32 20 32 47v69c0 27 -10 47 -32 47
s-31 -20 -31 -47z" />
    <glyph glyph-name="uni2077" unicode="&#x2077;" horiz-adv-x="207" 
d="M202 700v-74c-71 -83 -63 -205 -63 -395h-87c0 249 27 322 72 391v4h-119v74h197z" />
    <glyph glyph-name="uni2078" unicode="&#x2078;" horiz-adv-x="274" 
d="M137 707c72 0 120 -54 120 -122c0 -65 -40 -102 -71 -109v-7c30 -8 73 -46 73 -117c0 -69 -50 -128 -122 -128c-73 0 -122 59 -122 128c0 71 43 109 72 117v7c-31 7 -71 44 -71 109c0 68 48 122 121 122zM104 590v-30c0 -30 11 -48 33 -49c22 1 32 19 32 49v30
c0 27 -10 47 -32 47s-33 -20 -33 -47zM104 385v-43c0 -27 11 -47 33 -47s32 20 32 47v43c0 30 -10 48 -32 49c-22 -1 -33 -19 -33 -49z" />
    <glyph glyph-name="uni2079" unicode="&#x2079;" horiz-adv-x="273" 
d="M168 341v87h-7c-16 -16 -32 -28 -58 -28c-39 0 -88 34 -88 154c1 96 47 152 122 152s121 -59 121 -227v-29c0 -168 -48 -227 -123 -227s-116 63 -116 146h86v-28c0 -27 10 -47 32 -47s31 20 31 47zM168 519v69c0 27 -9 47 -31 47s-32 -20 -32 -47v-69
c0 -27 10 -47 32 -47s31 20 31 47z" />
    <glyph glyph-name="period" unicode="." horiz-adv-x="188" 
d="M20 102c0 68 30 107 75 107c44 0 73 -39 73 -107s-29 -107 -73 -107c-45 0 -75 39 -75 107z" />
    <glyph glyph-name="comma" unicode="," horiz-adv-x="186" 
d="M0 -120l40 243h146l-105 -243h-81z" />
    <glyph glyph-name="colon" unicode=":" horiz-adv-x="188" 
d="M20 478c0 68 30 107 75 107c44 0 73 -39 73 -107s-29 -107 -73 -107c-45 0 -75 39 -75 107zM20 102c0 68 30 107 75 107c44 0 73 -39 73 -107s-29 -107 -73 -107c-45 0 -75 39 -75 107z" />
    <glyph glyph-name="semicolon" unicode=";" horiz-adv-x="186" 
d="M26 478c0 68 30 107 75 107c44 0 73 -39 73 -107s-29 -107 -73 -107c-45 0 -75 39 -75 107zM0 -120l40 243h146l-105 -243h-81z" />
    <glyph glyph-name="ellipsis" unicode="&#x2026;" horiz-adv-x="518" 
d="M425 209c44 0 73 -39 73 -107s-29 -107 -73 -107c-42 0 -71 34 -75 95h-17c-4 -61 -32 -95 -73 -95c-42 0 -71 34 -75 95h-17c-4 -61 -32 -95 -73 -95c-45 0 -75 39 -75 107s30 107 75 107c41 0 69 -34 73 -94h17c4 60 33 94 75 94c41 0 69 -34 73 -94h17
c4 60 33 94 75 94z" />
    <glyph glyph-name="exclam" unicode="!" horiz-adv-x="185" 
d="M170 1h-155c0 52 20 92 65 106v15h-36l-22 579h141l-22 -579h-36v-15c48 -15 65 -54 65 -106z" />
    <glyph glyph-name="exclamdown" unicode="&#xa1;" horiz-adv-x="185" 
d="M15 699h155c0 -52 -20 -92 -65 -106v-15h36l22 -579h-141l22 579h36v15c-48 15 -65 54 -65 106z" />
    <glyph glyph-name="question" unicode="?" horiz-adv-x="354" 
d="M225 121h-51v-15c48 -15 65 -54 65 -106h-155c0 52 20 92 65 106v15h-52v39c0 192 116 193 116 360v33c0 41 -9 67 -37 67s-38 -26 -38 -67v-109h-128v79c0 107 65 187 167 187s167 -80 167 -187c0 -170 -119 -189 -119 -372v-30z" />
    <glyph glyph-name="questiondown" unicode="&#xbf;" horiz-adv-x="354" 
d="M129 579h51v15c-48 15 -65 54 -65 106h155c0 -52 -20 -92 -65 -106v-15h52v-39c0 -192 -116 -193 -116 -360v-33c0 -41 9 -67 37 -67s38 26 38 67v109h128v-79c0 -107 -65 -187 -167 -187s-167 80 -167 187c0 170 119 189 119 372v30z" />
    <glyph glyph-name="periodcentered" unicode="&#xb7;" horiz-adv-x="188" 
d="M20 297c0 68 30 107 75 107c44 0 73 -39 73 -107s-29 -107 -73 -107c-45 0 -75 39 -75 107z" />
    <glyph glyph-name="bullet" unicode="&#x2022;" horiz-adv-x="232" 
d="M20 296c0 89 39 139 98 139c57 0 94 -50 94 -139c0 -88 -37 -139 -94 -139c-59 0 -98 51 -98 139z" />
    <glyph glyph-name="asterisk" unicode="*" horiz-adv-x="294" 
d="M217 565v-5l67 -28l-40 -69l-57 43c-3 -2 -6 -4 -10 -5l10 -71h-80l10 70c-4 2 -7 4 -10 6l-57 -43l-40 69l66 28v5v5l-66 28l40 69l57 -44l10 6l-10 71h80l-10 -72c3 -1 6 -3 9 -5l58 44l40 -69l-67 -28v-5z" />
    <glyph glyph-name="numbersign" unicode="#" horiz-adv-x="506" 
d="M500 552l-16 -90h-48l-36 -223h50l-16 -90h-49l-24 -149h-124l24 149h-81l-24 -149h-124l24 149h-51l16 90h50l36 223h-52l16 90h50l24 148h124l-24 -148h81l24 148h124l-24 -148h50zM195 239h81l36 223h-81z" />
    <glyph glyph-name="slash" unicode="/" horiz-adv-x="284" 
d="M10 0l137 700h127l-137 -700h-127z" />
    <glyph glyph-name="backslash" unicode="\" horiz-adv-x="284" 
d="M10 700h127l137 -700h-127z" />
    <glyph glyph-name="parenleft" unicode="(" horiz-adv-x="219" 
d="M209 0h-10c-119 0 -184 97 -184 332v36c0 235 65 332 184 332h10v-90h-10c-33 0 -48 -20 -48 -61v-398c0 -41 15 -61 48 -61h10v-90z" />
    <glyph glyph-name="parenright" unicode=")" horiz-adv-x="219" 
d="M20 0h-10v90h10c33 0 48 20 48 61v398c0 41 -15 61 -48 61h-10v90h10c119 0 184 -97 184 -332v-36c0 -235 -65 -332 -184 -332z" />
    <glyph glyph-name="braceleft" unicode="{" horiz-adv-x="251" 
d="M135 356v-12c25 0 48 -48 48 -106v-77c0 -41 15 -71 48 -71h10v-90h-10c-108 0 -182 101 -182 266c0 15 -7 46 -34 46v76c27 0 34 31 34 46c0 165 74 266 182 266h10v-90h-10c-33 0 -48 -30 -48 -71v-77c0 -58 -23 -106 -48 -106z" />
    <glyph glyph-name="braceright" unicode="}" horiz-adv-x="251" 
d="M116 344v12c-25 0 -48 48 -48 106v77c0 41 -15 71 -48 71h-10v90h10c108 0 182 -101 182 -266c0 -15 7 -46 34 -46v-76c-27 0 -34 -31 -34 -46c0 -165 -74 -266 -182 -266h-10v90h10c33 0 48 30 48 71v77c0 58 23 106 48 106z" />
    <glyph glyph-name="bracketleft" unicode="[" horiz-adv-x="221" 
d="M211 700v-90h-53v-520h53v-90h-181v700h181z" />
    <glyph glyph-name="bracketright" unicode="]" horiz-adv-x="221" 
d="M191 700v-700h-181v90h53v520h-53v90h181z" />
    <glyph glyph-name="hyphen" unicode="-" horiz-adv-x="240" 
d="M20 249v110h200v-110h-200z" />
    <glyph glyph-name="endash" unicode="&#x2013;" horiz-adv-x="320" 
d="M20 249v110h280v-110h-280z" />
    <glyph glyph-name="emdash" unicode="&#x2014;" horiz-adv-x="440" 
d="M20 249v110h400v-110h-400z" />
    <glyph glyph-name="underscore" unicode="_" horiz-adv-x="280" 
d="M20 -120v110h240v-110h-240z" />
    <glyph glyph-name="hyphen.cap" horiz-adv-x="240" 
d="M20 293v110h200v-110h-200z" />
    <glyph glyph-name="endash.cap" horiz-adv-x="320" 
d="M20 293v110h280v-110h-280z" />
    <glyph glyph-name="emdash.cap" horiz-adv-x="440" 
d="M20 293v110h400v-110h-400z" />
    <glyph glyph-name="quotesinglbase" unicode="&#x201a;" horiz-adv-x="186" 
d="M0 -120l40 243h146l-105 -243h-81z" />
    <glyph glyph-name="quotedblbase" unicode="&#x201e;" horiz-adv-x="351" 
d="M0 -120l40 243h146l-105 -243h-81zM165 -120l40 243h146l-105 -243h-81z" />
    <glyph glyph-name="quotedblleft" unicode="&#x201c;" horiz-adv-x="351" 
d="M186 700l-40 -243h-146l105 243h81zM351 700l-40 -243h-146l105 243h81z" />
    <glyph glyph-name="quotedblright" unicode="&#x201d;" horiz-adv-x="351" 
d="M0 457l40 243h146l-105 -243h-81zM165 457l40 243h146l-105 -243h-81z" />
    <glyph glyph-name="quoteleft" unicode="&#x2018;" horiz-adv-x="186" 
d="M186 700l-40 -243h-146l105 243h81z" />
    <glyph glyph-name="quoteright" unicode="&#x2019;" horiz-adv-x="186" 
d="M0 457l40 243h146l-105 -243h-81z" />
    <glyph glyph-name="guillemotleft" unicode="&#xab;" 
d="M5 249v100l181 126l-1 -115l-94 -55v-12l94 -55l1 -115zM195 249v100l181 126l-1 -115l-94 -55v-12l94 -55l1 -115z" />
    <glyph glyph-name="guillemotright" unicode="&#xbb;" 
d="M25 475l181 -126v-100l-181 -126l1 115l94 55v12l-94 55zM215 475l181 -126v-100l-181 -126l1 115l94 55v12l-94 55z" />
    <glyph glyph-name="guilsinglleft" unicode="&#x2039;" horiz-adv-x="211" 
d="M5 249v100l181 126l-1 -115l-94 -55v-12l94 -55l1 -115z" />
    <glyph glyph-name="guilsinglright" unicode="&#x203a;" horiz-adv-x="211" 
d="M25 475l181 -126v-100l-181 -126l1 115l94 55v12l-94 55z" />
    <glyph glyph-name="quotedbl" unicode="&#x22;" horiz-adv-x="308" 
d="M36 452l-26 248h133l-26 -248h-81zM191 452l-26 248h133l-26 -248h-81z" />
    <glyph glyph-name="quotesingle" unicode="'" horiz-adv-x="153" 
d="M36 452l-26 248h133l-26 -248h-81z" />
    <glyph glyph-name="guillemotleft.cap" 
d="M5 309v100l181 126l-1 -115l-94 -55v-12l94 -55l1 -115zM195 309v100l181 126l-1 -115l-94 -55v-12l94 -55l1 -115z" />
    <glyph glyph-name="guillemotright.cap" 
d="M25 535l181 -126v-100l-181 -126l1 115l94 55v12l-94 55zM215 535l181 -126v-100l-181 -126l1 115l94 55v12l-94 55z" />
    <glyph glyph-name="guilsinglleft.cap" horiz-adv-x="211" 
d="M5 309v100l181 126l-1 -115l-94 -55v-12l94 -55l1 -115z" />
    <glyph glyph-name="guilsinglright.cap" horiz-adv-x="211" 
d="M25 535l181 -126v-100l-181 -126l1 115l94 55v12l-94 55z" />
    <glyph glyph-name="uni200A" unicode="&#x200a;" horiz-adv-x="60" 
 />
    <glyph glyph-name="uni202F" unicode="&#x202f;" horiz-adv-x="90" 
 />
    <glyph glyph-name="uni2009" unicode="&#x2009;" horiz-adv-x="90" 
 />
    <glyph glyph-name="uni200B" unicode="&#x200b;" horiz-adv-x="20" 
 />
    <glyph glyph-name="uni20BF" unicode="&#x20bf;" horiz-adv-x="403" 
d="M272 375v-12c68 -11 116 -81 116 -161v-13c0 -97 -50 -159 -125 -181v-58h-125v50h-108v700h108v50h125v-61c74 -23 115 -83 115 -167c0 -78 -44 -136 -106 -147zM158 610v-198h30c41 0 56 30 56 71v56c0 41 -15 71 -56 71h-30zM254 161v90c0 41 -15 71 -56 71h-40v-232
h40c41 0 56 30 56 71z" />
    <glyph glyph-name="cent" unicode="&#xa2;" horiz-adv-x="386" 
d="M371 422v-20h-132v88c0 41 -13 71 -46 71s-46 -30 -46 -71v-278c0 -41 13 -71 46 -71s46 30 46 71v96h132v-26c0 -113 -46 -191 -116 -219v-63h-125v62c-71 28 -115 112 -115 270v38c0 158 44 242 115 270v60h125v-59c70 -25 116 -97 116 -219z" />
    <glyph glyph-name="currency" unicode="&#xa4;" horiz-adv-x="392" 
d="M377 369v-38c0 -99 -18 -168 -49 -214l48 -117h-109l-20 57c-16 -5 -33 -7 -51 -7s-35 2 -51 7l-20 -57h-109l48 117c-31 46 -49 115 -49 214v38c0 99 18 168 49 214l-48 117h109l20 -57c16 5 33 7 51 7s35 -2 51 -7l20 57h109l-48 -117c31 -46 49 -115 49 -214zM196 140
c33 0 47 30 47 71v278c0 41 -14 71 -47 71s-47 -30 -47 -71v-278c0 -41 14 -71 47 -71z" />
    <glyph glyph-name="dollar" unicode="$" horiz-adv-x="368" 
d="M358 154c0 -74 -47 -132 -111 -154v-50h-125v50c-63 21 -112 76 -112 182v68h127v-90c0 -57 20 -80 50 -80c27 0 48 23 48 58c0 34 -8 55 -52 113l-94 124c-57 76 -71 116 -71 182c0 56 36 119 104 143v50h125v-51c63 -24 105 -85 105 -171v-59h-127v77
c0 47 -15 74 -47 74c-28 0 -42 -25 -42 -55c0 -27 14 -53 57 -110l94 -126c56 -75 71 -110 71 -175z" />
    <glyph glyph-name="Euro" unicode="&#x20ac;" horiz-adv-x="421" 
d="M275 151v66h131c0 -122 -65 -227 -180 -227c-99 0 -169 75 -181 275h-35v70h33v35h-33v70h35c13 197 83 270 181 270c115 0 180 -89 180 -225h-131v64c0 41 -15 71 -49 71s-49 -30 -49 -71v-109h152v-70h-152v-35h152v-70h-152v-114c0 -41 15 -71 49 -71s49 30 49 71z
" />
    <glyph glyph-name="florin" unicode="&#x192;" horiz-adv-x="294" 
d="M210 400h74v-90h-74v-129c0 -138 -65 -181 -183 -181h-17v90h17c43 0 56 30 56 71v149h-73v90h73v118c0 140 65 182 183 182h17v-90h-17c-43 0 -56 -30 -56 -72v-138z" />
    <glyph glyph-name="sterling" unicode="&#xa3;" horiz-adv-x="369" 
d="M359 505v-31h-128v72c0 48 -10 74 -38 74c-33 0 -43 -38 -30 -127l15 -100h123v-90h-113c2 -80 -23 -143 -69 -196v-12h235v-95h-344v93c52 52 63 121 53 210h-53v90h40l-11 71c-26 164 53 246 153 246c102 0 167 -80 167 -205z" />
    <glyph glyph-name="yen" unicode="&#xa5;" horiz-adv-x="393" 
d="M250 700h136l-79 -281h57v-70h-77l-10 -35h87v-70h-104v-244h-128v244h-103v70h86l-10 35h-76v70h57l-79 281h135l32 -173l16 -139h12l16 139z" />
    <glyph glyph-name="plus" unicode="+" horiz-adv-x="480" 
d="M301 398h149v-95h-149v-183h-120v183h-151v95h151v182h120v-182z" />
    <glyph glyph-name="minus" unicode="&#x2212;" horiz-adv-x="360" 
d="M30 303v95h300v-95h-300z" />
    <glyph glyph-name="multiply" unicode="&#xd7;" horiz-adv-x="457" 
d="M368 565l74 -74l-139 -140l139 -139l-74 -75l-139 140l-140 -140l-74 75l139 139l-139 140l74 74l140 -139z" />
    <glyph glyph-name="divide" unicode="&#xf7;" horiz-adv-x="460" 
d="M98 572c0 76 43 138 132 138s132 -62 132 -138c0 -78 -43 -140 -132 -140s-132 62 -132 140zM198 590v-38c0 -27 10 -48 32 -48c24 0 32 21 32 48v38c0 27 -8 48 -32 48c-22 0 -32 -21 -32 -48zM30 303v95h400v-95h-400zM98 130c0 76 43 138 132 138s132 -62 132 -138
c0 -78 -43 -140 -132 -140s-132 62 -132 140zM198 148v-38c0 -27 10 -48 32 -48c24 0 32 21 32 48v38c0 27 -8 48 -32 48c-22 0 -32 -21 -32 -48z" />
    <glyph glyph-name="equal" unicode="=" horiz-adv-x="380" 
d="M30 385v95h320v-95h-320zM30 221v95h320v-95h-320z" />
    <glyph glyph-name="notequal" unicode="&#x2260;" horiz-adv-x="399" 
d="M369 480v-95h-107l-24 -69h131v-95h-164l-35 -101h-100l35 101h-75v95h108l24 69h-132v95h164l35 100h100l-35 -100h75z" />
    <glyph glyph-name="greater" unicode="&#x3e;" horiz-adv-x="314" 
d="M294 401v-102l-264 -158l1 131l155 78l-155 78l-1 131z" />
    <glyph glyph-name="less" unicode="&#x3c;" horiz-adv-x="309" 
d="M279 141l-264 158v102l264 158l-1 -131l-155 -78l155 -78z" />
    <glyph glyph-name="greaterequal" unicode="&#x2265;" horiz-adv-x="315" 
d="M295 473v-102l-264 -158l1 131l155 78l-155 78l-1 131zM30 89v95h264v-95h-264z" />
    <glyph glyph-name="lessequal" unicode="&#x2264;" horiz-adv-x="315" 
d="M284 213l-264 158v102l264 158l-1 -131l-155 -78l155 -78zM21 184h264v-95h-264v95z" />
    <glyph glyph-name="plusminus" unicode="&#xb1;" horiz-adv-x="480" 
d="M301 657v-182h149v-95h-149v-183h-120v183h-151v95h151v182h120zM448 50h-418v95h418v-95z" />
    <glyph glyph-name="approxequal" unicode="&#x2248;" horiz-adv-x="414" 
d="M112 376h-82v54c0 84 75 100 144 77l92 -30c23 -8 36 0 36 18v10h82v-54c0 -84 -75 -100 -144 -77l-92 31c-23 7 -36 0 -36 -19v-10zM112 196h-82v54c0 84 75 100 144 77l92 -30c23 -8 36 0 36 18v10h82v-54c0 -84 -75 -100 -144 -77l-92 31c-23 7 -36 0 -36 -19v-10z
" />
    <glyph glyph-name="asciitilde" unicode="~" horiz-adv-x="414" 
d="M112 281h-82v54c0 84 75 100 144 77l92 -30c23 -8 36 0 36 18v10h82v-54c0 -84 -75 -100 -144 -77l-92 31c-23 7 -36 0 -36 -19v-10z" />
    <glyph glyph-name="logicalnot" unicode="&#xac;" horiz-adv-x="410" 
d="M30 303v95h350v-185h-120v90h-230z" />
    <glyph glyph-name="asciicircum" unicode="^" horiz-adv-x="278" 
d="M64 700h150l64 -90h-118l-16 38h-10l-16 -38h-118z" />
    <glyph glyph-name="emptyset" unicode="&#x2205;" horiz-adv-x="446" 
d="M395 412l51 22v-89l-43 -19v-17v-38c0 -200 -73 -281 -181 -281c-88 0 -153 54 -174 182l-48 -21v89l41 18v13v38c0 200 73 281 181 281c87 0 151 -53 173 -178zM175 429v-113l94 41v72c0 41 -14 71 -47 71s-47 -30 -47 -71zM269 151v117l-94 -41v-76
c0 -41 14 -71 47 -71s47 30 47 71z" />
    <glyph glyph-name="integral" unicode="&#x222b;" horiz-adv-x="293" 
d="M266 700h17v-90h-17c-43 0 -56 -30 -56 -72v-357c0 -138 -65 -181 -183 -181h-17v90h17c43 0 56 30 56 71v357c0 140 65 182 183 182z" />
    <glyph glyph-name="uni00B5" unicode="&#xb5;" horiz-adv-x="397" 
d="M30 -120v700h125v-427c11 -20 28 -46 54 -46c28 0 38 25 38 64v409h125v-437c0 -112 -45 -153 -95 -153c-45 0 -77 26 -110 67h-12v-177h-125z" />
    <glyph glyph-name="percent" unicode="%" horiz-adv-x="460" 
d="M346 315c70 0 104 -62 104 -161c0 -102 -34 -164 -104 -164c-72 0 -105 63 -105 164c0 23 2 44 5 63h-15l-82 -217h-104l174 457h-13c-15 -46 -46 -72 -91 -72c-72 0 -105 63 -105 164c0 99 33 161 105 161c70 0 104 -62 104 -161c0 -25 -2 -47 -6 -67h15l83 218h104
l-174 -458h12c15 46 46 73 93 73zM134 484v127c0 16 -6 29 -19 29c-14 0 -20 -13 -20 -29v-127c0 -16 6 -29 20 -29c13 0 19 13 19 29zM365 89v127c0 16 -6 29 -19 29c-14 0 -20 -13 -20 -29v-127c0 -16 6 -29 20 -29c13 0 19 13 19 29z" />
    <glyph glyph-name="perthousand" unicode="&#x2030;" horiz-adv-x="683" 
d="M569 315c70 0 104 -62 104 -161c0 -102 -34 -164 -104 -164c-68 0 -101 56 -105 147h-14c-4 -92 -38 -147 -104 -147c-72 0 -105 63 -105 164c0 23 2 44 5 63h-15l-82 -217h-104l174 457h-13c-15 -46 -46 -72 -91 -72c-72 0 -105 63 -105 164c0 99 33 161 105 161
c70 0 104 -62 104 -161c0 -25 -2 -47 -6 -67h15l83 218h104l-174 -458h12c15 46 46 73 93 73c68 0 102 -59 104 -153h14c2 94 35 153 105 153zM134 484v127c0 16 -6 29 -19 29c-14 0 -20 -13 -20 -29v-127c0 -16 6 -29 20 -29c13 0 19 13 19 29zM365 89v127
c0 16 -6 29 -19 29c-14 0 -20 -13 -20 -29v-127c0 -16 6 -29 20 -29c13 0 19 13 19 29zM588 89v127c0 16 -6 29 -19 29c-14 0 -20 -13 -20 -29v-127c0 -16 6 -29 20 -29c13 0 19 13 19 29z" />
    <glyph glyph-name="arrowup" unicode="&#x2191;" horiz-adv-x="500" 
d="M20 503l230 207l230 -207v-12h-175v-491h-110v491h-175v12z" />
    <glyph glyph-name="uni2197" unicode="&#x2197;" horiz-adv-x="603" 
d="M258 627l309 -17l16 -309l-8 -8l-124 124l-347 -348l-78 78l347 347l-124 124z" />
    <glyph glyph-name="arrowright" unicode="&#x2192;" horiz-adv-x="740" 
d="M523 580l207 -230l-207 -230h-12v175h-491v110h491v175h12z" />
    <glyph glyph-name="uni2198" unicode="&#x2198;" horiz-adv-x="602" 
d="M582 405l-17 -309l-309 -16l-8 8l124 124l-348 347l78 78l347 -347l124 124z" />
    <glyph glyph-name="arrowdown" unicode="&#x2193;" horiz-adv-x="500" 
d="M480 197l-230 -207l-230 207v12h175v491h110v-491h175v-12z" />
    <glyph glyph-name="uni2199" unicode="&#x2199;" horiz-adv-x="602" 
d="M346 80l-309 16l-17 309l9 9l124 -124l347 347l78 -78l-348 -347l124 -124z" />
    <glyph glyph-name="arrowleft" unicode="&#x2190;" horiz-adv-x="740" 
d="M217 120l-207 230l207 230h12v-175h491v-110h-491v-175h-12z" />
    <glyph glyph-name="uni2196" unicode="&#x2196;" horiz-adv-x="603" 
d="M20 301l16 309l309 17l9 -9l-124 -124l347 -347l-78 -78l-347 348l-124 -124z" />
    <glyph glyph-name="arrowboth" unicode="&#x2194;" horiz-adv-x="939" 
d="M710 580h12l207 -230l-207 -230h-12v175h-481v-175h-12l-207 230l207 230h12v-175h481v175z" />
    <glyph glyph-name="arrowupdn" unicode="&#x2195;" horiz-adv-x="500" 
d="M480 503v-12h-175v-282h175v-12l-230 -207l-230 206v12l175 1v282h-175v12l230 207z" />
    <glyph glyph-name="at" unicode="@" horiz-adv-x="583" 
d="M558 379v-379h-125l9 66h-12c-30 -53 -62 -76 -104 -76c-73 0 -118 83 -118 259v47c0 194 52 266 118 266c42 0 66 -24 94 -66h12c-2 50 -36 126 -116 126c-82 0 -171 -99 -171 -345c0 -143 24 -247 29 -277h-124c-6 28 -25 133 -25 277c0 293 133 433 288 433
c150 0 245 -111 245 -331zM433 155v252c-12 25 -30 43 -53 43c-29 0 -42 -32 -42 -75v-188c0 -43 13 -75 42 -75c23 0 41 18 53 43z" />
    <glyph glyph-name="ampersand" unicode="&#x26;" horiz-adv-x="410" 
d="M216 403h189v-85h-35l-1 -318h-78l-18 66h-12c-17 -40 -53 -76 -112 -76c-79 0 -139 72 -139 193c0 110 62 159 118 172v12c-55 9 -118 63 -118 160c0 101 72 183 180 183c104 0 180 -68 180 -191v-44h-134v74c0 41 -13 71 -46 71s-46 -30 -46 -71v-50
c0 -44 15 -96 72 -96zM242 176v142h-26c-57 0 -72 -51 -72 -95v-47c0 -48 14 -77 50 -77c37 0 48 29 48 77z" />
    <glyph glyph-name="paragraph" unicode="&#xb6;" horiz-adv-x="490" 
d="M10 491v18c0 112 60 191 180 191h110v-700h-110v300c-108 0 -180 79 -180 191zM350 0v700h110v-700h-110z" />
    <glyph glyph-name="section" unicode="&#xa7;" horiz-adv-x="346" 
d="M336 270c0 -55 -25 -97 -66 -122c35 -38 66 -80 66 -133c0 -88 -66 -145 -160 -145c-90 0 -166 45 -166 159v53h125v-70c0 -35 16 -55 40 -55c25 0 38 20 38 43c0 33 -22 56 -40 76l-86 95c-36 39 -69 81 -69 146c0 42 22 87 64 114c-34 37 -64 78 -64 140
c0 68 54 139 158 139c88 0 153 -58 153 -155v-49h-121v69c0 18 -10 48 -37 48c-21 0 -35 -18 -35 -47c0 -31 19 -48 44 -76l83 -90c37 -40 73 -84 73 -140zM122 344c0 -31 20 -57 58 -98l40 -43c5 7 9 17 9 30c0 31 -24 61 -56 97l-40 44c-7 -7 -11 -18 -11 -30z" />
    <glyph glyph-name="copyright" unicode="&#xa9;" horiz-adv-x="526" 
d="M15 330v40c0 196 82 340 248 340s248 -144 248 -340v-40c0 -196 -82 -340 -248 -340s-248 144 -248 340zM97 366v-32c0 -177 55 -265 166 -265s166 88 166 265v32c0 177 -55 265 -166 265s-166 -88 -166 -265zM290 326h85v-28c0 -120 -48 -173 -113 -173
c-68 0 -113 55 -113 215v20c0 160 45 215 113 215c65 0 113 -43 113 -172v-22h-85v85c0 25 -8 42 -28 42s-28 -17 -28 -42v-232c0 -25 8 -42 28 -42s28 17 28 42v92z" />
    <glyph glyph-name="registered" unicode="&#xae;" horiz-adv-x="526" 
d="M15 330v40c0 196 82 340 248 340s248 -144 248 -340v-40c0 -196 -82 -340 -248 -340s-248 144 -248 340zM97 366v-32c0 -177 55 -265 166 -265s166 88 166 265v32c0 177 -55 265 -166 265s-166 -88 -166 -265zM365 260l6 -130h-80l-5 128c-2 46 -3 60 -32 60h-9v-188h-77
v440h89c70 0 117 -41 117 -120c0 -48 -30 -89 -64 -95v-9c23 -2 52 -25 55 -86zM245 508v-125h15c21 0 31 12 31 41v43c0 29 -10 41 -31 41h-15z" />
    <glyph glyph-name="trademark" unicode="&#x2122;" horiz-adv-x="604" 
d="M165 620v-410h-97v410h-58v80h214l-1 -80h-58zM335 210h-94v490h134l29 -202l9 -91h9l9 91l30 202h133v-490h-94l4 145l8 157h-8l-51 -302h-71l-50 302h-9l9 -157z" />
    <glyph glyph-name="degree" unicode="&#xb0;" horiz-adv-x="294" 
d="M10 511c0 122 46 199 137 199s137 -77 137 -199c0 -124 -46 -201 -137 -201s-137 77 -137 201zM115 579v-138c0 -27 10 -48 32 -48c24 0 32 21 32 48v138c0 27 -8 48 -32 48c-22 0 -32 -21 -32 -48z" />
    <glyph glyph-name="bar" unicode="|" horiz-adv-x="185" 
d="M30 820h125v-940h-125v940z" />
    <glyph glyph-name="brokenbar" unicode="&#xa6;" horiz-adv-x="185" 
d="M30 820h125v-410h-125v410zM30 290h125v-410h-125v410z" />
    <glyph glyph-name="dagger" unicode="&#x2020;" horiz-adv-x="346" 
d="M235 580h81v-90h-81v-219h-125v219h-80v90h80v120h125v-120z" />
    <glyph glyph-name="daggerdbl" unicode="&#x2021;" horiz-adv-x="346" 
d="M316 580v-90h-81v-107h81v-90h-81v-120h-125v120h-80v90h80v107h-80v90h80v120h125v-120h81z" />
    <glyph glyph-name="uni2116" unicode="&#x2116;" horiz-adv-x="294" 
d="M160 311v-17h110v-90h-246v90h111v16c-83 7 -125 83 -125 201c0 122 46 199 137 199s137 -77 137 -199c0 -118 -42 -193 -124 -200zM115 579v-138c0 -27 10 -48 32 -48c24 0 32 21 32 48v138c0 27 -8 48 -32 48c-22 0 -32 -21 -32 -48z" />
    <glyph glyph-name="uni0308" unicode="&#x308;" horiz-adv-x="0" 
d="M-205 604c-41 0 -65 37 -65 96h128c2 -59 -22 -96 -63 -96zM-64 604c-41 0 -65 37 -65 96h129c1 -59 -23 -96 -64 -96z" />
    <glyph glyph-name="uni0307" unicode="&#x307;" horiz-adv-x="0" 
d="M-71 604c-45 0 -72 37 -72 96h143c0 -59 -27 -96 -71 -96z" />
    <glyph glyph-name="gravecomb" unicode="&#x300;" horiz-adv-x="0" 
d="M-43 700l43 -90h-108l-90 90h155z" />
    <glyph glyph-name="acutecomb" unicode="&#x301;" horiz-adv-x="0" 
d="M-90 610h-108l43 90h155z" />
    <glyph glyph-name="uni030B" unicode="&#x30b;" horiz-adv-x="0" 
d="M-216 610h-90l36 90h130zM-76 610h-90l36 90h130z" />
    <glyph glyph-name="uni0302" unicode="&#x302;" horiz-adv-x="0" 
d="M-214 700h150l64 -90h-118l-16 38h-10l-16 -38h-118z" />
    <glyph glyph-name="uni030C" unicode="&#x30c;" horiz-adv-x="0" 
d="M0 700l-64 -90h-150l-64 90h118l16 -38h10l16 38h118z" />
    <glyph glyph-name="uni0306" unicode="&#x306;" horiz-adv-x="0" 
d="M-104 700h104c0 -60 -46 -96 -127 -96s-128 36 -128 96h105c0 -28 9 -39 23 -39s23 11 23 39z" />
    <glyph glyph-name="uni030A" unicode="&#x30a;" horiz-adv-x="0" 
d="M-210 657c0 33 36 53 105 53s105 -20 105 -53s-36 -53 -105 -53s-105 20 -105 53zM-131 658c0 -8 10 -13 26 -13s26 5 26 13c0 7 -10 12 -26 12s-26 -5 -26 -12z" />
    <glyph glyph-name="tildecomb" unicode="&#x303;" horiz-adv-x="0" 
d="M-189 610h-57v38c0 58 52 69 100 53l64 -21c16 -5 25 0 25 13v7h57v-38c0 -58 -52 -69 -100 -53l-64 21c-16 5 -25 0 -25 -13v-7z" />
    <glyph glyph-name="uni0304" unicode="&#x304;" horiz-adv-x="0" 
d="M-190 620v80h190v-80h-190z" />
    <glyph glyph-name="uni0312" unicode="&#x312;" horiz-adv-x="0" 
d="M-108 700h108l-43 -90h-155z" />
    <glyph glyph-name="uni0326" unicode="&#x326;" horiz-adv-x="0" 
d="M-90 -120h-108l43 90h155z" />
    <glyph glyph-name="uni0327" unicode="&#x327;" horiz-adv-x="0" 
d="M-86 -120h-42v85h39c16 0 24 7 24 23v12h65v-39c0 -62 -29 -81 -86 -81z" />
    <glyph glyph-name="uni0328" unicode="&#x328;" horiz-adv-x="0" 
d="M0 -120h-42c-57 0 -86 19 -86 81v39h65v-12c0 -16 8 -23 24 -23h39v-85z" />
    <glyph glyph-name="dieresis" unicode="&#xa8;" horiz-adv-x="400" 
d="M130 604c-41 0 -65 37 -65 96h128c2 -59 -22 -96 -63 -96zM271 604c-41 0 -65 37 -65 96h129c1 -59 -23 -96 -64 -96z" />
    <glyph glyph-name="dotaccent" unicode="&#x2d9;" horiz-adv-x="400" 
d="M201 604c-45 0 -72 37 -72 96h143c0 -59 -27 -96 -71 -96z" />
    <glyph glyph-name="grave" unicode="`" horiz-adv-x="400" 
d="M254 700l43 -90h-108l-90 90h155z" />
    <glyph glyph-name="acute" unicode="&#xb4;" horiz-adv-x="400" 
d="M221 610h-108l43 90h155z" />
    <glyph glyph-name="hungarumlaut" unicode="&#x2dd;" horiz-adv-x="400" 
d="M146 610h-90l36 90h130zM286 610h-90l36 90h130z" />
    <glyph glyph-name="circumflex" unicode="&#x2c6;" horiz-adv-x="400" 
d="M125 700h150l64 -90h-118l-16 38h-10l-16 -38h-118z" />
    <glyph glyph-name="caron" unicode="&#x2c7;" horiz-adv-x="400" 
d="M339 700l-64 -90h-150l-64 90h118l16 -38h10l16 38h118z" />
    <glyph glyph-name="breve" unicode="&#x2d8;" horiz-adv-x="400" 
d="M223 700h104c0 -60 -46 -96 -127 -96s-128 36 -128 96h105c0 -28 9 -39 23 -39s23 11 23 39z" />
    <glyph glyph-name="ring" unicode="&#x2da;" horiz-adv-x="400" 
d="M95 657c0 33 36 53 105 53s105 -20 105 -53s-36 -53 -105 -53s-105 20 -105 53zM174 658c0 -8 10 -13 26 -13s26 5 26 13c0 7 -10 12 -26 12s-26 -5 -26 -12z" />
    <glyph glyph-name="tilde" unicode="&#x2dc;" horiz-adv-x="400" 
d="M134 610h-57v38c0 58 52 69 100 53l64 -21c16 -5 25 0 25 13v7h57v-38c0 -58 -52 -69 -100 -53l-64 21c-16 5 -25 0 -25 -13v-7z" />
    <glyph glyph-name="macron" unicode="&#xaf;" horiz-adv-x="400" 
d="M105 620v80h190v-80h-190z" />
    <glyph glyph-name="cedilla" unicode="&#xb8;" horiz-adv-x="400" 
d="M185 -120h-42v85h39c16 0 24 7 24 23v12h65v-39c0 -62 -29 -81 -86 -81z" />
    <glyph glyph-name="ogonek" unicode="&#x2db;" horiz-adv-x="400" 
d="M271 -120h-42c-57 0 -86 19 -86 81v39h65v-12c0 -16 8 -23 24 -23h39v-85z" />
    </font>
</defs>
</svg>
